<?xml version="1.0" encoding="UTF-8" standalone="no"?>
<!-- Created with Inkscape (http://www.inkscape.org/) -->

<svg
   xmlns:dc="http://purl.org/dc/elements/1.1/"
   xmlns:cc="http://creativecommons.org/ns#"
   xmlns:rdf="http://www.w3.org/1999/02/22-rdf-syntax-ns#"
   xmlns:svg="http://www.w3.org/2000/svg"
   xmlns="http://www.w3.org/2000/svg"
   xmlns:xlink="http://www.w3.org/1999/xlink"
   xmlns:sodipodi="http://sodipodi.sourceforge.net/DTD/sodipodi-0.dtd"
   xmlns:inkscape="http://www.inkscape.org/namespaces/inkscape"
   width="100"
   height="100"
   viewBox="0 0 100 100"
   id="svg2"
   version="1.1"
   inkscape:version="0.91 r13725"
   sodipodi:docname="5_apollo_2.svg">
  <defs
     id="defs4">
    <linearGradient
       inkscape:collect="always"
       id="linearGradient5598">
      <stop
         style="stop-color:#b4b4b4;stop-opacity:1"
         offset="0"
         id="stop5600" />
      <stop
         id="stop5610"
         offset="0.34999979"
         style="stop-color:#0000ae;stop-opacity:1" />
      <stop
         style="stop-color:#0000ae;stop-opacity:1"
         offset="0.6499998"
         id="stop5612" />
      <stop
         style="stop-color:#4abaff;stop-opacity:1"
         offset="1"
         id="stop5602" />
    </linearGradient>
    <linearGradient
       inkscape:collect="always"
       xlink:href="#linearGradient5598"
       id="linearGradient5594"
       x1="100"
       y1="952.36218"
       x2="100"
       y2="1052.3622"
       gradientUnits="userSpaceOnUse" />
    <linearGradient
       inkscape:collect="always"
       xlink:href="#linearGradient5598"
       id="linearGradient5596"
       x1="100"
       y1="952.36218"
       x2="100"
       y2="1052.3622"
       gradientUnits="userSpaceOnUse" />
  </defs>
  <sodipodi:namedview
     id="base"
     pagecolor="#ffffff"
     bordercolor="#666666"
     borderopacity="1.0"
     inkscape:pageopacity="0.0"
     inkscape:pageshadow="2"
     inkscape:zoom="23.985062"
     inkscape:cx="28.164087"
     inkscape:cy="71.594429"
     inkscape:document-units="px"
     inkscape:current-layer="layer1"
     showgrid="false"
     units="px"
     showguides="true"
     inkscape:guide-bbox="true"
     inkscape:snap-bbox="true"
     inkscape:bbox-paths="true"
     inkscape:bbox-nodes="true"
     inkscape:snap-bbox-edge-midpoints="true"
     inkscape:snap-bbox-midpoints="true"
     inkscape:object-paths="true"
     inkscape:snap-intersection-paths="true"
     inkscape:object-nodes="true"
     inkscape:snap-smooth-nodes="true"
     inkscape:snap-midpoints="true"
     inkscape:snap-object-midpoints="true"
     inkscape:snap-center="true"
     inkscape:snap-text-baseline="true"
     inkscape:snap-page="false"
     inkscape:window-width="1920"
     inkscape:window-height="1017"
     inkscape:window-x="-8"
     inkscape:window-y="32"
     inkscape:window-maximized="1"
     inkscape:snap-grids="false"
     inkscape:snap-to-guides="true"
     inkscape:snap-global="false">
    <sodipodi:guide
       position="74.056604,35"
       orientation="0,1"
       id="guide5536"
       inkscape:label=""
       inkscape:color="rgb(0,0,255)" />
    <sodipodi:guide
       position="83.490566,65"
       orientation="0,1"
       id="guide5538"
       inkscape:label=""
       inkscape:color="rgb(0,0,255)" />
    <sodipodi:guide
       position="0,0"
       orientation="0,100"
       id="guide5548" />
    <sodipodi:guide
       position="100,0"
       orientation="-100,0"
       id="guide5550" />
    <sodipodi:guide
       position="100,100"
       orientation="0,-100"
       id="guide5552" />
    <sodipodi:guide
       position="0,100"
       orientation="100,0"
       id="guide5554" />
  </sodipodi:namedview>
  <metadata
     id="metadata7">
    <rdf:RDF>
      <cc:Work
         rdf:about="">
        <dc:format>image/svg+xml</dc:format>
        <dc:type
           rdf:resource="http://purl.org/dc/dcmitype/StillImage" />
        <dc:title></dc:title>
      </cc:Work>
    </rdf:RDF>
  </metadata>
  <g
     inkscape:label="Layer 1"
     inkscape:groupmode="layer"
     id="layer1"
     transform="translate(0,-952.36216)">
    <rect
       style="color:#000000;clip-rule:nonzero;display:inline;overflow:visible;visibility:visible;opacity:1;isolation:auto;mix-blend-mode:normal;color-interpolation:sRGB;color-interpolation-filters:linearRGB;solid-color:#000000;solid-opacity:1;fill:#646464;fill-opacity:1;fill-rule:nonzero;stroke:none;stroke-width:30;stroke-linecap:butt;stroke-linejoin:miter;stroke-miterlimit:4;stroke-dasharray:none;stroke-dashoffset:3.95672584;stroke-opacity:1;color-rendering:auto;image-rendering:auto;shape-rendering:auto;text-rendering:auto;enable-background:accumulate"
       id="rect4148"
       width="132.31133"
       height="135.84906"
       x="-12.028302"
       y="939.86218" />
    <path
       inkscape:connector-curvature="0"
       style="opacity:1;fill:#ffffff;fill-opacity:1;fill-rule:evenodd;stroke:#ffffff;stroke-width:5;stroke-linecap:butt;stroke-linejoin:miter;stroke-miterlimit:4;stroke-dasharray:none;stroke-opacity:1"
       d="m 25.262977,975.22728 -0.740829,27.76952 -6.523438,0 6.462891,2.0781 -0.148438,4.9531 -6.314453,0 6.253906,2.0918 -0.09766,3.2735 -6.15625,0 6.097656,1.9453 -0.548828,18.5098 -3.308594,0 0,-4.211 -2.240234,-1.2383 0,-15.0058 0,-5.3653 0,-3.6719 -0.90039,-3.3593 0,-7.31246 -1.001954,-1.209 0,-2.5196 -0.5,-0.6054 0,-5.4238 -0.398437,0 -0.103516,5.4238 -0.501953,0.6054 0,2.5196 -0.943359,1.209 0,7.31246 -0.898438,3.3593 0,24.043 -2.359375,1.2383 0,4.211 -4.3066403,0 0,11.0918 27.0175783,0 -1.751953,-71.71292 z"
       id="path4883-6"
       sodipodi:nodetypes="cccccccccccccccccccccccccccccccccccccc" />
    <path
       style="opacity:1;fill:#ffffff;fill-opacity:1;fill-rule:evenodd;stroke:url(#linearGradient5594);stroke-width:2.5;stroke-linecap:butt;stroke-linejoin:miter;stroke-miterlimit:4;stroke-dasharray:none;stroke-opacity:1"
       d="m 25.346365,975.22728 -0.824217,27.76952 -6.523438,0 6.462891,2.0781 -0.148438,4.9531 -6.314453,0 6.253906,2.0918 -0.09766,3.2734 -6.15625,0 6.097656,1.9454 -0.548828,18.5097 -3.308594,0 0,-4.2109 -2.240234,-1.2383 0,-15.0059 0,-5.3652 0,-3.6719 -0.90039,-3.3593 0,-7.31246 -1.001954,-1.209 0,-2.5196 -0.5,-0.6054 0,-5.4238 -0.398437,0 -0.103516,5.4238 -0.501953,0.6054 0,2.5196 -0.943359,1.209 0,7.31246 -0.898438,3.3593 0,24.043 -2.359375,1.2383 0,4.2109 -4.3066403,0 0,11.0918 27.0175783,0 -1.751953,-71.71282 -6.003907,0 z"
       id="path4883"
       inkscape:connector-curvature="0" />
    <path
       style="opacity:1;fill:#ffffff;fill-opacity:1;fill-rule:evenodd;stroke:#ffffff;stroke-width:5;stroke-linecap:butt;stroke-linejoin:miter;stroke-miterlimit:4;stroke-dasharray:none;stroke-opacity:1"
       d="m 72.703773,995.2925 2.178703,-3.60346 -1.27638,-2.21876 12.439754,-20.5747 0.967583,-3.34057 3.783469,-6.25766 -0.231886,-1.553 1.303631,-2.15614 -0.114642,-0.77676 2.806253,-4.6414 -0.340961,-0.20615 -2.894836,4.58784 -0.742776,0.25836 -1.303631,2.15613 -1.432808,0.54651 -3.783469,6.25766 -2.506923,2.40986 -12.439753,20.5747 -2.659717,-0.16106 -2.178703,3.60346 6.724254,4.06558 z"
       id="path4883-5-8"
       inkscape:connector-curvature="0"
       sodipodi:nodetypes="cccccccccccccccccccccc" />
    <path
       style="opacity:1;fill:#ffffff;fill-opacity:1;fill-rule:evenodd;stroke:url(#linearGradient5596);stroke-width:2.5;stroke-linecap:butt;stroke-linejoin:miter;stroke-miterlimit:4;stroke-dasharray:none;stroke-opacity:1"
       d="m 72.703773,995.2925 2.178703,-3.60346 -1.27638,-2.21876 12.439754,-20.5747 0.967583,-3.34057 3.783479,-6.25767 -0.231886,-1.55301 1.303631,-2.15614 -0.114641,-0.77676 2.806252,-4.6414 -0.34096,-0.20615 -2.894837,4.58784 -0.742776,0.25836 -1.303631,2.15614 -1.432807,0.5465 -3.78348,6.25768 -2.506923,2.40986 -12.439753,20.5747 -2.659717,-0.16106 -2.178703,3.60346 6.724254,4.06558 z"
       id="path4883-5"
       inkscape:connector-curvature="0"
       sodipodi:nodetypes="cccccccccccccccccccccc" />
  </g>
</svg>
