<?xml version="1.0" encoding="UTF-8" standalone="no"?>
<!-- Created with Inkscape (http://www.inkscape.org/) -->

<svg
   xmlns:dc="http://purl.org/dc/elements/1.1/"
   xmlns:cc="http://creativecommons.org/ns#"
   xmlns:rdf="http://www.w3.org/1999/02/22-rdf-syntax-ns#"
   xmlns:svg="http://www.w3.org/2000/svg"
   xmlns="http://www.w3.org/2000/svg"
   xmlns:xlink="http://www.w3.org/1999/xlink"
   xmlns:sodipodi="http://sodipodi.sourceforge.net/DTD/sodipodi-0.dtd"
   xmlns:inkscape="http://www.inkscape.org/namespaces/inkscape"
   width="1850.005"
   height="1850.7122"
   viewBox="0 0 1850.005 1850.7122"
   id="svg4182"
   version="1.1"
   inkscape:version="0.91 r13725"
   sodipodi:docname="miasteczko_4_3.svg"
   inkscape:export-filename="C:\Users\Adrian\Dysk Google\RW Page code\tla\miasteczko_4_1.png"
   inkscape:export-xdpi="90"
   inkscape:export-ydpi="90">
  <defs
     id="defs4184">
    <linearGradient
       inkscape:collect="always"
       id="linearGradient4281">
      <stop
         style="stop-color:#9f73c5;stop-opacity:1"
         offset="0"
         id="stop4283" />
      <stop
         style="stop-color:#0099c5;stop-opacity:1"
         offset="1"
         id="stop4285" />
    </linearGradient>
    <linearGradient
       inkscape:collect="always"
       id="linearGradient4273">
      <stop
         style="stop-color:#98d3c5;stop-opacity:1"
         offset="0"
         id="stop4275" />
      <stop
         style="stop-color:#9f73c5;stop-opacity:1"
         offset="1"
         id="stop4277" />
    </linearGradient>
    <linearGradient
       inkscape:collect="always"
       id="linearGradient4265">
      <stop
         style="stop-color:#edff59;stop-opacity:1"
         offset="0"
         id="stop4267" />
      <stop
         style="stop-color:#98d3c5;stop-opacity:1"
         offset="1"
         id="stop4269" />
    </linearGradient>
    <linearGradient
       inkscape:collect="always"
       xlink:href="#linearGradient4265"
       id="linearGradient4271"
       x1="25.002501"
       y1="25.356096"
       x2="1825.0026"
       y2="625.35608"
       gradientUnits="userSpaceOnUse"
       gradientTransform="matrix(-1,0,0,1,1824.9974,-772.9939)" />
    <linearGradient
       inkscape:collect="always"
       xlink:href="#linearGradient4273"
       id="linearGradient4279"
       x1="1825.0026"
       y1="625.35608"
       x2="25.002501"
       y2="1225.3561"
       gradientUnits="userSpaceOnUse"
       gradientTransform="matrix(-1,0,0,1,1824.9974,-772.9939)" />
    <linearGradient
       inkscape:collect="always"
       xlink:href="#linearGradient4281"
       id="linearGradient4287"
       x1="25.002501"
       y1="1225.3561"
       x2="1825.0026"
       y2="1825.3561"
       gradientUnits="userSpaceOnUse"
       gradientTransform="matrix(-1,0,0,1,1824.9974,-772.9939)" />
  </defs>
  <sodipodi:namedview
     id="base"
     pagecolor="#ffffff"
     bordercolor="#666666"
     borderopacity="1.0"
     inkscape:pageopacity="0.0"
     inkscape:pageshadow="2"
     inkscape:zoom="0.32399774"
     inkscape:cx="1552.3159"
     inkscape:cy="853.03626"
     inkscape:document-units="px"
     inkscape:current-layer="layer1"
     showgrid="false"
     units="px"
     showguides="false"
     inkscape:guide-bbox="true"
     inkscape:snap-page="true"
     inkscape:snap-bbox="true"
     inkscape:bbox-paths="true"
     inkscape:bbox-nodes="true"
     inkscape:snap-bbox-edge-midpoints="true"
     inkscape:snap-bbox-midpoints="true"
     inkscape:object-paths="true"
     inkscape:snap-intersection-paths="true"
     inkscape:object-nodes="true"
     inkscape:snap-smooth-nodes="true"
     inkscape:snap-midpoints="true"
     inkscape:snap-object-midpoints="true"
     inkscape:snap-center="true"
     inkscape:snap-text-baseline="true"
     inkscape:snap-global="true"
     inkscape:window-width="1920"
     inkscape:window-height="1017"
     inkscape:window-x="-8"
     inkscape:window-y="32"
     inkscape:window-maximized="1"
     inkscape:snap-nodes="true"
     inkscape:snap-grids="true"
     inkscape:snap-to-guides="true"
     fit-margin-top="0"
     fit-margin-left="0"
     fit-margin-right="0"
     fit-margin-bottom="0">
    <sodipodi:guide
       position="125.0025,625.35612"
       orientation="0,1"
       id="guide4730"
       inkscape:label=""
       inkscape:color="rgb(0,0,255)" />
    <sodipodi:guide
       position="-74.9975,1225.3561"
       orientation="0,1"
       id="guide4732"
       inkscape:label=""
       inkscape:color="rgb(0,0,255)" />
    <inkscape:grid
       type="xygrid"
       id="grid4755"
       spacingx="100"
       spacingy="100"
       empspacing="1000"
       originx="25.0025"
       originy="25.356103" />
    <inkscape:grid
       type="xygrid"
       id="grid4226"
       enabled="false"
       originx="25.0025"
       originy="25.356103" />
    <sodipodi:guide
       position="125.0025,325.35611"
       orientation="0,1"
       id="guide4244" />
    <sodipodi:guide
       position="1771.3395,925.35612"
       orientation="0,1"
       id="guide4254"
       inkscape:label=""
       inkscape:color="rgb(0,0,255)" />
    <sodipodi:guide
       position="-4.265717,1526.2903"
       orientation="0,1"
       id="guide4256"
       inkscape:label=""
       inkscape:color="rgb(0,0,255)" />
  </sodipodi:namedview>
  <metadata
     id="metadata4187">
    <rdf:RDF>
      <cc:Work
         rdf:about="">
        <dc:format>image/svg+xml</dc:format>
        <dc:type
           rdf:resource="http://purl.org/dc/dcmitype/StillImage" />
        <dc:title></dc:title>
      </cc:Work>
    </rdf:RDF>
  </metadata>
  <g
     inkscape:label="Layer 1"
     inkscape:groupmode="layer"
     id="layer1"
     transform="translate(25.0025,772.9939)">
    <path
       style="color:#000000;clip-rule:nonzero;display:inline;overflow:visible;visibility:visible;opacity:1;isolation:auto;mix-blend-mode:normal;color-interpolation:sRGB;color-interpolation-filters:linearRGB;solid-color:#000000;solid-opacity:1;fill:url(#linearGradient4271);fill-opacity:1;fill-rule:nonzero;stroke:none;stroke-width:50;stroke-linecap:round;stroke-linejoin:miter;stroke-miterlimit:4;stroke-dasharray:none;stroke-dashoffset:0;stroke-opacity:1;color-rendering:auto;image-rendering:auto;shape-rendering:auto;text-rendering:auto;enable-background:accumulate"
       d="m 1800.3724,-772.98999 a 25.002432,25.0025 0 0 1 24.6231,25.35156 l 0,324.06641 -250,0 0,-299.06641 -150,0 0,235.35547 -125.0411,-125.04102 -189.6367,188.75196 -135.32029,0 0,-299.06641 -150,0 0,299.06641 -140.418,0 -84.582,-168.37305 -84.5801,168.37305 -125.7051,0 -89.7128,-88.875 -100,99.0664 -99.918,-98.98437 -75.082001,75.08203 0,289.64453 -50,0 0,-310.35352 124.9179,-124.91797 100.082101,99.14844 100,-99.0664 110.2871,109.25586 74.2949,0 115.416,-229.75782 115.418,229.75782 59.582,0 0,-299.06641 249.99999,0 0,299.06641 64.6797,0 210.3594,-209.37891 74.959,74.95703 0,-164.64453 250,0 0,299.06641 150,0 0,-274.06641 a 25.002432,25.0025 0 0 1 25.3769,-25.35156 z"
       id="rect4164"
       inkscape:connector-curvature="0" />
    <path
       style="color:#000000;font-style:normal;font-variant:normal;font-weight:normal;font-stretch:normal;font-size:medium;line-height:normal;font-family:sans-serif;text-indent:0;text-align:start;text-decoration:none;text-decoration-line:none;text-decoration-style:solid;text-decoration-color:#000000;letter-spacing:normal;word-spacing:normal;text-transform:none;direction:ltr;block-progression:tb;writing-mode:lr-tb;baseline-shift:baseline;text-anchor:start;white-space:normal;clip-rule:nonzero;display:inline;overflow:visible;visibility:visible;opacity:1;isolation:auto;mix-blend-mode:normal;color-interpolation:sRGB;color-interpolation-filters:linearRGB;solid-color:#000000;solid-opacity:1;fill:url(#linearGradient4279);fill-opacity:1;fill-rule:evenodd;stroke:none;stroke-width:50;stroke-linecap:round;stroke-linejoin:miter;stroke-miterlimit:4;stroke-dasharray:none;stroke-dashoffset:0;stroke-opacity:1;color-rendering:auto;image-rendering:auto;shape-rendering:auto;text-rendering:auto;enable-background:accumulate"
       d="m 924.9935,-172.63648 0,300 50,0 0,-200 250,0 0,200 50,0 0,-100 214.6445,0 110.3535,-110.35351 225,224.99804 0,310.35355 -50,0 0,-289.64261 -175,-175 -89.6445,89.64453 -185.3535,0 0,100 -150,0 0,-200 -150,0 0,200 -150,0 0,-300 -149.99809,0 0,300 -125,0 -125,0 0,-200 -150,0 0,85.35547 -114.6445,114.64453 -235.353501,0 0,-325.00195 50,0 0,275.00195 164.642601,0 85.3554,-85.35351 0,-114.64649 250,0 0,200 75,0 75,0 0,-300 249.99809,0 z"
       id="path4162-4"
       inkscape:connector-curvature="0" />
    <path
       style="color:#000000;font-style:normal;font-variant:normal;font-weight:normal;font-stretch:normal;font-size:medium;line-height:normal;font-family:sans-serif;text-indent:0;text-align:start;text-decoration:none;text-decoration-line:none;text-decoration-style:solid;text-decoration-color:#000000;letter-spacing:normal;word-spacing:normal;text-transform:none;direction:ltr;block-progression:tb;writing-mode:lr-tb;baseline-shift:baseline;text-anchor:start;white-space:normal;clip-rule:nonzero;display:inline;overflow:visible;visibility:visible;opacity:1;isolation:auto;mix-blend-mode:normal;color-interpolation:sRGB;color-interpolation-filters:linearRGB;solid-color:#000000;solid-opacity:1;fill:url(#linearGradient4287);fill-opacity:1;fill-rule:evenodd;stroke:none;stroke-width:50;stroke-linecap:round;stroke-linejoin:miter;stroke-miterlimit:4;stroke-dasharray:none;stroke-dashoffset:0;stroke-opacity:1;color-rendering:auto;image-rendering:auto;shape-rendering:auto;text-rendering:auto;enable-background:accumulate"
       d="m 824.99741,327.3635 0,400 69.09766,0 205.90233,-102.9492 195.0625,97.5313 204.9356,-204.9356 210.3554,210.3535 64.6446,0 0,-275.0019 50,0 0,325.0019 -135.3555,0 -189.6445,-189.6445 -195.0645,195.0644 -204.9336,-102.4687 -194.09765,97.0488 -130.90234,0 0,-400 -249.998,0 0,400 -135.3555,0 -189.6445,-189.6445 -175.000001,175 0,289.6445 a 25.002432,25.0025 0 1 1 -50,0 l 0,-310.3535 225.000001,-225 210.3554,210.3535 64.6446,0 0,-400 349.998,0 z"
       id="path4162-4-4"
       inkscape:connector-curvature="0" />
  </g>
</svg>
