<?xml version="1.0" encoding="UTF-8" standalone="no"?>
<!-- Created with Inkscape (http://www.inkscape.org/) -->

<svg
   xmlns:dc="http://purl.org/dc/elements/1.1/"
   xmlns:cc="http://creativecommons.org/ns#"
   xmlns:rdf="http://www.w3.org/1999/02/22-rdf-syntax-ns#"
   xmlns:svg="http://www.w3.org/2000/svg"
   xmlns="http://www.w3.org/2000/svg"
   xmlns:xlink="http://www.w3.org/1999/xlink"
   xmlns:sodipodi="http://sodipodi.sourceforge.net/DTD/sodipodi-0.dtd"
   xmlns:inkscape="http://www.inkscape.org/namespaces/inkscape"
   width="1800"
   height="1800"
   viewBox="0 0 1800 1800"
   id="svg4182"
   version="1.1"
   inkscape:version="0.91 r13725"
   sodipodi:docname="miasteczko_2.svg">
  <defs
     id="defs4184">
    <linearGradient
       id="linearGradient4323"
       inkscape:collect="always">
      <stop
         style="stop-color:#ffc107;stop-opacity:1"
         offset="0"
         id="stop4327" />
      <stop
         style="stop-color:#8bc34a;stop-opacity:1"
         offset="1"
         id="stop4325" />
    </linearGradient>
    <linearGradient
       id="linearGradient4317"
       inkscape:collect="always">
      <stop
         style="stop-color:#ffc107;stop-opacity:1"
         offset="0"
         id="stop4321" />
      <stop
         style="stop-color:#8bc34a;stop-opacity:1"
         offset="1"
         id="stop4319" />
    </linearGradient>
    <linearGradient
       id="linearGradient4311"
       inkscape:collect="always">
      <stop
         style="stop-color:#ffc107;stop-opacity:1"
         offset="0"
         id="stop4315" />
      <stop
         style="stop-color:#8bc34a;stop-opacity:1"
         offset="1"
         id="stop4313" />
    </linearGradient>
    <linearGradient
       id="linearGradient4305"
       inkscape:collect="always">
      <stop
         style="stop-color:#ffc107;stop-opacity:1"
         offset="0"
         id="stop4309" />
      <stop
         style="stop-color:#8bc34a;stop-opacity:1"
         offset="1"
         id="stop4307" />
    </linearGradient>
    <linearGradient
       id="linearGradient4299"
       inkscape:collect="always">
      <stop
         style="stop-color:#ffc107;stop-opacity:1"
         offset="0"
         id="stop4303" />
      <stop
         style="stop-color:#8bc34a;stop-opacity:1"
         offset="1"
         id="stop4301" />
    </linearGradient>
    <linearGradient
       id="linearGradient4293"
       inkscape:collect="always">
      <stop
         style="stop-color:#ffc107;stop-opacity:1"
         offset="0"
         id="stop4297" />
      <stop
         style="stop-color:#8bc34a;stop-opacity:1"
         offset="1"
         id="stop4295" />
    </linearGradient>
    <linearGradient
       id="linearGradient4287"
       inkscape:collect="always">
      <stop
         style="stop-color:#ffc107;stop-opacity:1"
         offset="0"
         id="stop4291" />
      <stop
         style="stop-color:#8bc34a;stop-opacity:1"
         offset="1"
         id="stop4289" />
    </linearGradient>
    <linearGradient
       id="linearGradient4281"
       inkscape:collect="always">
      <stop
         style="stop-color:#ffc107;stop-opacity:1"
         offset="0"
         id="stop4285" />
      <stop
         style="stop-color:#8bc34a;stop-opacity:1"
         offset="1"
         id="stop4283" />
    </linearGradient>
    <linearGradient
       id="linearGradient4275"
       inkscape:collect="always">
      <stop
         style="stop-color:#ffc107;stop-opacity:1"
         offset="0"
         id="stop4279" />
      <stop
         style="stop-color:#8bc34a;stop-opacity:1"
         offset="1"
         id="stop4277" />
    </linearGradient>
    <linearGradient
       id="linearGradient4269"
       inkscape:collect="always">
      <stop
         style="stop-color:#ffc107;stop-opacity:1"
         offset="0"
         id="stop4273" />
      <stop
         style="stop-color:#8bc34a;stop-opacity:1"
         offset="1"
         id="stop4271" />
    </linearGradient>
    <linearGradient
       id="linearGradient4263"
       inkscape:collect="always">
      <stop
         style="stop-color:#ffc107;stop-opacity:1"
         offset="0"
         id="stop4267" />
      <stop
         style="stop-color:#8bc34a;stop-opacity:1"
         offset="1"
         id="stop4265" />
    </linearGradient>
    <linearGradient
       id="linearGradient4257"
       inkscape:collect="always">
      <stop
         style="stop-color:#ffc107;stop-opacity:1"
         offset="0"
         id="stop4261" />
      <stop
         style="stop-color:#8bc34a;stop-opacity:1"
         offset="1"
         id="stop4259" />
    </linearGradient>
    <linearGradient
       id="linearGradient4251"
       inkscape:collect="always">
      <stop
         style="stop-color:#ffc107;stop-opacity:1"
         offset="0"
         id="stop4255" />
      <stop
         style="stop-color:#8bc34a;stop-opacity:1"
         offset="1"
         id="stop4253" />
    </linearGradient>
    <linearGradient
       id="linearGradient4245"
       inkscape:collect="always">
      <stop
         style="stop-color:#ffc107;stop-opacity:1"
         offset="0"
         id="stop4249" />
      <stop
         style="stop-color:#8bc34a;stop-opacity:1"
         offset="1"
         id="stop4247" />
    </linearGradient>
    <linearGradient
       id="linearGradient4239"
       inkscape:collect="always">
      <stop
         style="stop-color:#ffc107;stop-opacity:1"
         offset="0"
         id="stop4243" />
      <stop
         style="stop-color:#8bc34a;stop-opacity:1"
         offset="1"
         id="stop4241" />
    </linearGradient>
    <linearGradient
       id="linearGradient4233"
       inkscape:collect="always">
      <stop
         style="stop-color:#ffc107;stop-opacity:1"
         offset="0"
         id="stop4237" />
      <stop
         style="stop-color:#8bc34a;stop-opacity:1"
         offset="1"
         id="stop4235" />
    </linearGradient>
    <linearGradient
       id="linearGradient4227"
       inkscape:collect="always">
      <stop
         style="stop-color:#ffc107;stop-opacity:1"
         offset="0"
         id="stop4231" />
      <stop
         style="stop-color:#8bc34a;stop-opacity:1"
         offset="1"
         id="stop4229" />
    </linearGradient>
    <linearGradient
       inkscape:collect="always"
       id="linearGradient4185">
      <stop
         id="stop4189"
         offset="0"
         style="stop-color:#ffc107;stop-opacity:1" />
      <stop
         id="stop4187"
         offset="1"
         style="stop-color:#8bc34a;stop-opacity:1" />
    </linearGradient>
    <linearGradient
       inkscape:collect="always"
       xlink:href="#linearGradient4185"
       id="linearGradient4191"
       x1="0"
       y1="-747.63782"
       x2="1800"
       y2="1052.3622"
       gradientUnits="userSpaceOnUse" />
    <linearGradient
       inkscape:collect="always"
       xlink:href="#linearGradient4323"
       id="linearGradient4193"
       x1="0"
       y1="-747.63782"
       x2="1800"
       y2="1052.3622"
       gradientUnits="userSpaceOnUse" />
    <linearGradient
       inkscape:collect="always"
       xlink:href="#linearGradient4317"
       id="linearGradient4195"
       x1="0"
       y1="-747.63782"
       x2="1800"
       y2="1052.3622"
       gradientUnits="userSpaceOnUse" />
    <linearGradient
       inkscape:collect="always"
       xlink:href="#linearGradient4311"
       id="linearGradient4197"
       x1="0"
       y1="-747.63782"
       x2="1800"
       y2="1052.3622"
       gradientUnits="userSpaceOnUse" />
    <linearGradient
       inkscape:collect="always"
       xlink:href="#linearGradient4305"
       id="linearGradient4199"
       x1="0"
       y1="-747.63782"
       x2="1800"
       y2="1052.3622"
       gradientUnits="userSpaceOnUse" />
    <linearGradient
       inkscape:collect="always"
       xlink:href="#linearGradient4299"
       id="linearGradient4201"
       x1="0"
       y1="-747.63782"
       x2="1800"
       y2="1052.3622"
       gradientUnits="userSpaceOnUse" />
    <linearGradient
       inkscape:collect="always"
       xlink:href="#linearGradient4293"
       id="linearGradient4203"
       x1="0"
       y1="-747.63782"
       x2="1800"
       y2="1052.3622"
       gradientUnits="userSpaceOnUse" />
    <linearGradient
       inkscape:collect="always"
       xlink:href="#linearGradient4287"
       id="linearGradient4205"
       x1="0"
       y1="-747.63782"
       x2="1800"
       y2="1052.3622"
       gradientUnits="userSpaceOnUse" />
    <linearGradient
       inkscape:collect="always"
       xlink:href="#linearGradient4281"
       id="linearGradient4207"
       x1="0"
       y1="-747.63782"
       x2="1800"
       y2="1052.3622"
       gradientUnits="userSpaceOnUse" />
    <linearGradient
       inkscape:collect="always"
       xlink:href="#linearGradient4275"
       id="linearGradient4209"
       x1="0"
       y1="-747.63782"
       x2="1800"
       y2="1052.3622"
       gradientUnits="userSpaceOnUse" />
    <linearGradient
       inkscape:collect="always"
       xlink:href="#linearGradient4269"
       id="linearGradient4211"
       x1="0"
       y1="-747.63782"
       x2="1800"
       y2="1052.3622"
       gradientUnits="userSpaceOnUse" />
    <linearGradient
       inkscape:collect="always"
       xlink:href="#linearGradient4263"
       id="linearGradient4213"
       x1="0"
       y1="-747.63782"
       x2="1800"
       y2="1052.3622"
       gradientUnits="userSpaceOnUse" />
    <linearGradient
       inkscape:collect="always"
       xlink:href="#linearGradient4257"
       id="linearGradient4215"
       x1="0"
       y1="-747.63782"
       x2="1800"
       y2="1052.3622"
       gradientUnits="userSpaceOnUse" />
    <linearGradient
       inkscape:collect="always"
       xlink:href="#linearGradient4251"
       id="linearGradient4217"
       x1="0"
       y1="-747.63782"
       x2="1800"
       y2="1052.3622"
       gradientUnits="userSpaceOnUse" />
    <linearGradient
       inkscape:collect="always"
       xlink:href="#linearGradient4245"
       id="linearGradient4219"
       x1="0"
       y1="-747.63782"
       x2="1800"
       y2="1052.3622"
       gradientUnits="userSpaceOnUse" />
    <linearGradient
       inkscape:collect="always"
       xlink:href="#linearGradient4239"
       id="linearGradient4221"
       x1="0"
       y1="-747.63782"
       x2="1800"
       y2="1052.3622"
       gradientUnits="userSpaceOnUse" />
    <linearGradient
       inkscape:collect="always"
       xlink:href="#linearGradient4233"
       id="linearGradient4223"
       x1="528.65979"
       y1="-528.65979"
       x2="-2016.9247"
       y2="-528.65979"
       gradientUnits="userSpaceOnUse" />
    <linearGradient
       inkscape:collect="always"
       xlink:href="#linearGradient4227"
       id="linearGradient4225"
       x1="0"
       y1="-747.63782"
       x2="1800"
       y2="1052.3622"
       gradientUnits="userSpaceOnUse" />
  </defs>
  <sodipodi:namedview
     id="base"
     pagecolor="#ffffff"
     bordercolor="#666666"
     borderopacity="1.0"
     inkscape:pageopacity="0.0"
     inkscape:pageshadow="2"
     inkscape:zoom="0.33312586"
     inkscape:cx="-76.888721"
     inkscape:cy="875.13171"
     inkscape:document-units="px"
     inkscape:current-layer="layer1"
     showgrid="false"
     units="px"
     showguides="false"
     inkscape:guide-bbox="true"
     inkscape:snap-page="true"
     inkscape:snap-bbox="true"
     inkscape:bbox-paths="true"
     inkscape:bbox-nodes="true"
     inkscape:snap-bbox-edge-midpoints="true"
     inkscape:snap-bbox-midpoints="true"
     inkscape:object-paths="true"
     inkscape:snap-intersection-paths="true"
     inkscape:object-nodes="true"
     inkscape:snap-smooth-nodes="true"
     inkscape:snap-midpoints="true"
     inkscape:snap-object-midpoints="true"
     inkscape:snap-center="true"
     inkscape:snap-text-baseline="true"
     inkscape:snap-global="true"
     inkscape:window-width="1920"
     inkscape:window-height="1017"
     inkscape:window-x="-8"
     inkscape:window-y="-8"
     inkscape:window-maximized="1"
     inkscape:snap-nodes="true">
    <sodipodi:guide
       position="931.83962,400"
       orientation="0,1"
       id="guide4730"
       inkscape:label=""
       inkscape:color="rgb(0,0,255)" />
    <sodipodi:guide
       position="895.75472,1400"
       orientation="0,1"
       id="guide4732"
       inkscape:label=""
       inkscape:color="rgb(0,0,255)" />
    <inkscape:grid
       type="xygrid"
       id="grid4755"
       spacingx="20"
       spacingy="20" />
  </sodipodi:namedview>
  <metadata
     id="metadata4187">
    <rdf:RDF>
      <cc:Work
         rdf:about="">
        <dc:format>image/svg+xml</dc:format>
        <dc:type
           rdf:resource="http://purl.org/dc/dcmitype/StillImage" />
        <dc:title />
      </cc:Work>
    </rdf:RDF>
  </metadata>
  <g
     inkscape:label="Layer 1"
     inkscape:groupmode="layer"
     id="layer1"
     transform="translate(0,747.63784)">
    <path
       style="opacity:1;fill:url(#linearGradient4225);fill-opacity:1;fill-rule:evenodd;stroke:none;stroke-width:1px;stroke-linecap:butt;stroke-linejoin:miter;stroke-opacity:1"
       d="m 1526.3494,-747.63784 -104.0243,120.02925 30,0 0,120.00019 30,0 0,-60.00015 29.9999,0 0,60.00015 90,0 0,-120.00019 30,0 -105.9756,-120.02925 z m -14.0244,60.02925 30,0 0,30 -30,0 0,-30 z m -29.9999,60 29.9999,0 0,29.99999 -29.9999,0 0,-29.99999 z m 59.9999,0 30,0 0,29.99999 -30,0 0,-29.99999 z m 0,60.00004 30,0 0,30.00015 -30,0 0,-30.00015 z"
       id="path4179-1-0-1"
       inkscape:connector-curvature="0" />
    <rect
       style="color:#000000;clip-rule:nonzero;display:inline;overflow:visible;visibility:visible;opacity:1;isolation:auto;mix-blend-mode:normal;color-interpolation:sRGB;color-interpolation-filters:linearRGB;solid-color:#000000;solid-opacity:1;fill:url(#linearGradient4223);fill-opacity:1;fill-rule:nonzero;stroke:none;stroke-width:1;stroke-linecap:square;stroke-linejoin:bevel;stroke-miterlimit:4;stroke-dasharray:none;stroke-dashoffset:0;stroke-opacity:1;color-rendering:auto;image-rendering:auto;shape-rendering:auto;text-rendering:auto;enable-background:accumulate"
       id="rect4751"
       width="1800"
       height="137.028"
       x="-1644.1324"
       y="-597.17377"
       transform="matrix(-0.70710678,-0.70710678,-0.70710678,0.70710678,0,0)"
       ry="0" />
    <path
       style="opacity:1;fill:url(#linearGradient4221);fill-opacity:1;fill-rule:evenodd;stroke:none;stroke-width:1px;stroke-linecap:butt;stroke-linejoin:miter;stroke-opacity:1"
       d="m 1208.763,-33.874334 -104.0244,120.029245 30,0 0,120.000189 30,0 0,-60.00015 30,0 0,60.00015 90,0 0,-120.000189 30,0 -105.9756,-120.029245 z m -14.0244,60.02925 30,0 0,30 -30,0 0,-30 z m -30,59.999995 30,0 0,29.999989 -30,0 0,-29.999989 z m 60,0 30,0 0,29.999989 -30,0 0,-29.999989 z m 0,60.000039 30,0 0,30.00015 -30,0 0,-30.00015 z"
       id="path4179-1-0-1-1"
       inkscape:connector-curvature="0" />
    <path
       style="opacity:1;fill:url(#linearGradient4219);fill-opacity:1;fill-rule:evenodd;stroke:none;stroke-width:1px;stroke-linecap:butt;stroke-linejoin:miter;stroke-opacity:1"
       d="m 538.30506,-715.92129 -104.0244,120.02925 30,0 0,120.00019 30,0 0,-60.00015 30,0 0,60.00015 90,0 0,-120.00019 30,0 -105.9756,-120.02925 z m -14.0244,60.02925 30,0 0,30 -30,0 0,-30 z m -30,60 30,0 0,29.99999 -30,0 0,-29.99999 z m 60,0 30,0 0,29.99999 -30,0 0,-29.99999 z m 0,60.00004 30,0 0,30.00015 -30,0 0,-30.00015 z"
       id="path4179-1-0-1-72"
       inkscape:connector-curvature="0" />
    <path
       style="opacity:1;fill:url(#linearGradient4217);fill-opacity:1;fill-rule:evenodd;stroke:none;stroke-width:1px;stroke-linecap:butt;stroke-linejoin:miter;stroke-opacity:1"
       d="M 478.4919,-3.2037238 374.4675,116.82553 l 30,0 0,120.00019 30,0 0,-60.00015 30,0 0,60.00015 90,0 0,-120.00019 30,0 L 478.4919,-3.2037238 Z m -14.0244,60.0292498 30,0 0,30.000008 -30,0 0,-30.000008 z m -30,60.000004 30,0 0,29.99999 -30,0 0,-29.99999 z m 60,0 30,0 0,29.99999 -30,0 0,-29.99999 z m 0,60.00004 30,0 0,30.00015 -30,0 0,-30.00015 z"
       id="path4179-1-0-1-69"
       inkscape:connector-curvature="0" />
    <path
       style="opacity:1;fill:url(#linearGradient4215);fill-opacity:1;fill-rule:evenodd;stroke:none;stroke-width:1px;stroke-linecap:butt;stroke-linejoin:miter;stroke-opacity:1"
       d="M 106.63375,-449.51695 2.6093477,-329.4877 l 30.0000003,0 0,120.00019 30,0 0,-60.00015 30,0 0,60.00015 90.000002,0 0,-120.00019 30,0 -105.9756,-120.02925 z m -14.024402,60.02925 30.000002,0 0,30 -30.000002,0 0,-30 z m -30,60 30,0 0,29.99999 -30,0 0,-29.99999 z m 60.000002,0 30,0 0,29.99999 -30,0 0,-29.99999 z m 0,60.00004 30,0 0,30.00015 -30,0 0,-30.00015 z"
       id="path4179-1-0-1-68"
       inkscape:connector-curvature="0" />
    <path
       style="opacity:1;fill:url(#linearGradient4213);fill-opacity:1;fill-rule:evenodd;stroke:none;stroke-width:1px;stroke-linecap:butt;stroke-linejoin:miter;stroke-opacity:1"
       d="m 158.18881,716.38643 -104.024398,120.02926 29.999999,0 0,120.00015 29.999999,0 0,-60.00011 30,0 0,60.00011 90.00001,0 0,-120.00015 30,0 -105.97561,-120.02926 z m -14.0244,60.02926 30,0 0,30 -30,0 0,-30 z m -30,60 30,0 0,29.99999 -30,0 0,-29.99999 z m 60,0 30.00001,0 0,29.99999 -30.00001,0 0,-29.99999 z m 0,60.00004 30.00001,0 0,30.00011 -30.00001,0 0,-30.00011 z"
       id="path4179-1-0-1-9"
       inkscape:connector-curvature="0" />
    <path
       style="opacity:1;fill:url(#linearGradient4211);fill-opacity:1;fill-rule:evenodd;stroke:none;stroke-width:1px;stroke-linecap:butt;stroke-linejoin:miter;stroke-opacity:1"
       d="M 104.0244,-135.43851 0,-15.409255 l 30,0 0,120.000185 30,0 0,-60.000145 30,0 0,60.000145 90,0 0,-120.000185 30,0 L 104.0244,-135.4385 Z M 90,-75.409255 l 30,0 0,30 -30,0 0,-30 z m -30,60 30,0 0,29.99999 -30,0 0,-29.99999 z m 60,0 30,0 0,29.99999 -30,0 0,-29.99999 z m 0,60.00004 30,0 0,30.00015 -30,0 0,-30.00015 z"
       id="path4179-1-0-1-90"
       inkscape:connector-curvature="0" />
    <path
       style="opacity:1;fill:url(#linearGradient4209);fill-opacity:1;fill-rule:evenodd;stroke:none;stroke-width:1px;stroke-linecap:butt;stroke-linejoin:miter;stroke-opacity:1"
       d="m 1134.0992,-700.52523 -104.0245,120.02925 30.0001,0 0,120.00019 30,0 0,-60.00015 30,0 0,60.00015 90,0 0,-120.00019 29.9999,0 -105.9755,-120.02925 z m -14.0244,60.02925 30,0 0,30 -30,0 0,-30 z m -30,60 30,0 0,29.99999 -30,0 0,-29.99999 z m 60,0 30,0 0,29.99999 -30,0 0,-29.99999 z m 0,60.00004 30,0 0,30.00015 -30,0 0,-30.00015 z"
       id="path4179-1-0-1-93"
       inkscape:connector-curvature="0" />
    <path
       style="opacity:1;fill:url(#linearGradient4207);fill-opacity:1;fill-rule:evenodd;stroke:none;stroke-width:1px;stroke-linecap:butt;stroke-linejoin:miter;stroke-opacity:1"
       d="m 747.9833,-502.33603 -104.0244,120.02925 30,0 0,120.00019 30,0 0,-60.00015 30,0 0,60.00015 90,0 0,-120.00019 30,0 -105.9756,-120.02925 z m -14.0244,60.02925 30,0 0,30 -30,0 0,-30 z m -30,60 30,0 0,29.99999 -30,0 0,-29.99999 z m 60,0 30,0 0,29.99999 -30,0 0,-29.99999 z m 0,60.00004 30,0 0,30.00015 -30,0 0,-30.00015 z"
       id="path4179-1-0-1-8"
       inkscape:connector-curvature="0" />
    <path
       style="opacity:1;fill:url(#linearGradient4205);fill-opacity:1;fill-rule:evenodd;stroke:none;stroke-width:1px;stroke-linecap:butt;stroke-linejoin:miter;stroke-opacity:1"
       d="m 1272.7871,812.33263 -104.0244,120.02925 30,0 0,120.00032 30,0 0,-60.00024 30,0 0,60.00024 90,0 0,-120.00032 30,0 -105.9756,-120.02925 z m -14.0244,60.02925 30,0 0,30 -30,0 0,-30 z m -30,60 30,0 0,29.99998 -30,0 0,-29.99998 z m 60,0 30,0 0,29.99998 -30,0 0,-29.99998 z m 0,60.00008 30,0 0,30.00024 -30,0 0,-30.00024 z"
       id="path4179-1-0-1-3"
       inkscape:connector-curvature="0" />
    <path
       style="opacity:1;fill:url(#linearGradient4203);fill-opacity:1;fill-rule:evenodd;stroke:none;stroke-width:1px;stroke-linecap:butt;stroke-linejoin:miter;stroke-opacity:1"
       d="m 648.08093,459.17512 0,330 150,0 0,-300 30,0 0,300 134.9999,0 15,0 75.00007,0 0,-30 -75.00007,0 0,-300 -329.9999,0 z m 60,30 30,0 0,270 -30,0 0,-270 z m 180,0 29.9999,0 0,270 -29.9999,0 0,-270 z"
       id="path5069"
       inkscape:connector-curvature="0" />
    <path
       id="path5058"
       style="opacity:1;fill:url(#linearGradient4201);fill-opacity:1;fill-rule:evenodd;stroke:none;stroke-width:1px;stroke-linecap:butt;stroke-linejoin:miter;stroke-opacity:1"
       d="m 1560.0001,66.282096 30,0 30,29.99999 0,30.000024 -30,29.99999 -30,0 -30,-29.99999 0,-30.000024 z m -135,-254.999986 a 14.999992,59.999999 0 0 0 -15,59.99999 l 0,120.0000027 30,0 0,-120.0000027 a 14.999992,59.999999 0 0 0 -15,-59.99999 z m 299.9999,0 a 14.999992,59.999999 0 0 0 -15,59.99999 l 0,120.0000027 30,0 0,-120.0000027 a 14.999992,59.999999 0 0 0 -15,-59.99999 z m 75,584.99999 -179.9999,0 0,-60 -90,0 0,60 -179.9999,0 0,-359.999994 0,-269.999996 59.9999,-150 0,-60 -29.9999,0 0,-30 29.9999,0 0,-30 30,0 0,30 30,0 0,30 -30,0 0,60 60,150 0,239.9999827 75.2679,-90.1193797 74.7321,90.1193797 0,-239.9999827 59.9999,-150 0,-60 -29.9999,0 0,-30 29.9999,0 0,-30 30,0 0,30 30,0 0,30 -30,0 0,60 60,150 z"
       inkscape:connector-curvature="0" />
    <path
       style="opacity:1;fill:url(#linearGradient4199);fill-opacity:1;fill-rule:evenodd;stroke:none;stroke-width:1px;stroke-linecap:butt;stroke-linejoin:miter;stroke-opacity:1"
       d="m 172.13273,609.06134 0,-59.99999 90.0001,0 -90.0001,-90 60.0001,0 -60.0001,-90 30.0001,0 -44.459,-90.94434 -45.5409,90.94434 30,0 -60.000003,90 60.000003,0 -90.000003,90 90.000003,0 0,59.99999 z"
       id="path4236-7"
       inkscape:connector-curvature="0" />
    <path
       style="opacity:1;fill:url(#linearGradient4197);fill-opacity:1;fill-rule:evenodd;stroke:none;stroke-width:1px;stroke-linecap:butt;stroke-linejoin:miter;stroke-opacity:1"
       d="m 999.05223,-24.191647 0,-59.999989 89.99997,0 -89.99997,-89.999994 59.99997,0 -59.99997,-90 29.99997,0 -44.45887,-90.94434 -45.5409,90.94434 30,0 -60,90 60,0 -90,89.999994 90,0 0,59.999989 z"
       id="path4236-7-5"
       inkscape:connector-curvature="0" />
    <path
       style="opacity:1;fill:url(#linearGradient4195);fill-opacity:1;fill-rule:evenodd;stroke:none;stroke-width:1px;stroke-linecap:butt;stroke-linejoin:miter;stroke-opacity:1"
       d="m 1002.0077,1000.6024 0,-30.00008 60.0001,0 -60.0001,-60.00007 30,0 -44.91193,-61.38976 -45.0882,61.38976 30.0001,0 -60.0002,60.00007 60.0002,0 0,30.00008 z"
       id="path4234"
       inkscape:connector-curvature="0" />
    <path
       style="opacity:1;fill:url(#linearGradient4193);fill-opacity:1;fill-rule:evenodd;stroke:none;stroke-width:1px;stroke-linecap:butt;stroke-linejoin:miter;stroke-opacity:1"
       d="m 337.2731,-11.671455 0,-30.00004 60.0001,0 -60.0001,-60.000075 30,0 -44.9119,-61.38976 -45.0882,61.38976 30.0001,0 -60.0002,60.000075 60.0002,0 0,30.00004 z"
       id="path4234-8"
       inkscape:connector-curvature="0" />
    <path
       style="color:#000000;clip-rule:nonzero;display:inline;overflow:visible;visibility:visible;opacity:1;isolation:auto;mix-blend-mode:normal;color-interpolation:sRGB;color-interpolation-filters:linearRGB;solid-color:#000000;solid-opacity:1;fill:url(#linearGradient4191);fill-opacity:1;fill-rule:nonzero;stroke:none;stroke-width:1;stroke-linecap:butt;stroke-linejoin:miter;stroke-miterlimit:4;stroke-dasharray:none;stroke-dashoffset:0;stroke-opacity:1;color-rendering:auto;image-rendering:auto;shape-rendering:auto;text-rendering:auto;enable-background:accumulate"
       d="m 303.18871,302.36209 0,750.00011 270,0 0,-750.0001 -270,0 z m 30,30 30,0 0,30 -30,0 0,-30 z m 60,0 30,0 0,30 -30,0 0,-30 z m 60,0 30,0 0,30 -30,0 0,-30 z m 60,0 30,0 0,30 -30,0 0,-30 z m -180,60.00001 30,0 0,30.00001 -30,0 0,-30.00001 z m 60,0 30,0 0,30.00001 -30,0 0,-30.00001 z m 60,0 30,0 0,30.00001 -30,0 0,-30.00001 z m 60,0 30,0 0,30.00001 -30,0 0,-30.00001 z m -180,60.00001 30,0 0,29.99999 -30,0 0,-29.99999 z m 60,0 30,0 0,29.99999 -30,0 0,-29.99999 z m 60,0 30,0 0,29.99999 -30,0 0,-29.99999 z m 60,0 30,0 0,29.99999 -30,0 0,-29.99999 z m -180,60 30,0 0,30 -30,0 0,-30 z m 60,0 30,0 0,30 -30,0 0,-30 z m 60,0 30,0 0,30 -30,0 0,-30 z m 60,0 30,0 0,30 -30,0 0,-30 z m -180,59.99998 30,0 0,30.00002 -30,0 0,-30.00002 z m 60,0 30,0 0,30.00002 -30,0 0,-30.00002 z m 60,0 30,0 0,30.00002 -30,0 0,-30.00002 z m 60,0 30,0 0,30.00002 -30,0 0,-30.00002 z m -180,60 30,0 0,29.99999 -30,0 0,-29.99999 z m 60,0 30,0 0,29.99999 -30,0 0,-29.99999 z m 60,0 30,0 0,29.99999 -30,0 0,-29.99999 z m 60,0 30,0 0,29.99999 -30,0 0,-29.99999 z m -180,59.99999 30,0 0,30 -30,0 0,-30 z m 60,0 30,0 0,30 -30,0 0,-30 z m 60,0 30,0 0,30 -30,0 0,-30 z m 60,0 30,0 0,30 -30,0 0,-30 z m -180,60 30,0 0,30 -30,0 0,-30 z m 60,0 30,0 0,30 -30,0 0,-30 z m 60,0 30,0 0,30 -30,0 0,-30 z m 60,0 30,0 0,30 -30,0 0,-30 z m -180,60 30,0 0,30 -30,0 0,-30 z m 60,0 30,0 0,30 -30,0 0,-30 z m 60,0 30,0 0,30 -30,0 0,-30 z m 60,0 30,0 0,30 -30,0 0,-30 z m -180,60 30,0 0,30 -30,0 0,-30 z m 60,0 30,0 0,30 -30,0 0,-30 z m 60,0 30,0 0,30 -30,0 0,-30 z m 60,0 30,0 0,30 -30,0 0,-30 z m -180,60 30,0 0,30 -30,0 0,-30 z m 60,0 30,0 0,30 -30,0 0,-30 z m 60,0 30,0 0,30 -30,0 0,-30 z m 60,0 30,0 0,30 -30,0 0,-30 z m -180,60 30,0 0,30.00012 -30,0 0,-30.00012 z m 60,0 30,0 0,30.00012 -30,0 0,-30.00012 z m 60,0 30,0 0,30.00012 -30,0 0,-30.00012 z m 60,0 30,0 0,30.00012 -30,0 0,-30.00012 z"
       id="use4665"
       inkscape:connector-curvature="0" />
  </g>
</svg>
