<?xml version="1.0" encoding="UTF-8" standalone="no"?>
<!-- Created with Inkscape (http://www.inkscape.org/) -->

<svg
   xmlns:dc="http://purl.org/dc/elements/1.1/"
   xmlns:cc="http://creativecommons.org/ns#"
   xmlns:rdf="http://www.w3.org/1999/02/22-rdf-syntax-ns#"
   xmlns:svg="http://www.w3.org/2000/svg"
   xmlns="http://www.w3.org/2000/svg"
   xmlns:xlink="http://www.w3.org/1999/xlink"
   xmlns:sodipodi="http://sodipodi.sourceforge.net/DTD/sodipodi-0.dtd"
   xmlns:inkscape="http://www.inkscape.org/namespaces/inkscape"
   width="1800"
   height="1800"
   viewBox="0 0 1800 1800"
   id="svg6188"
   version="1.1"
   inkscape:version="0.91 r13725"
   sodipodi:docname="polar_3_3.svg">
  <defs
     id="defs6190">
    <linearGradient
       id="linearGradient4834"
       inkscape:collect="always">
      <stop
         id="stop4836"
         offset="0"
         style="stop-color:#565f91;stop-opacity:1" />
      <stop
         id="stop4838"
         offset="1"
         style="stop-color:#f9a825;stop-opacity:1" />
    </linearGradient>
    <linearGradient
       id="linearGradient4828"
       inkscape:collect="always">
      <stop
         id="stop4830"
         offset="0"
         style="stop-color:#565f91;stop-opacity:1" />
      <stop
         id="stop4832"
         offset="1"
         style="stop-color:#f9a825;stop-opacity:1" />
    </linearGradient>
    <linearGradient
       id="linearGradient4822"
       inkscape:collect="always">
      <stop
         id="stop4824"
         offset="0"
         style="stop-color:#565f91;stop-opacity:1" />
      <stop
         id="stop4826"
         offset="1"
         style="stop-color:#f9a825;stop-opacity:1" />
    </linearGradient>
    <linearGradient
       id="linearGradient4816"
       inkscape:collect="always">
      <stop
         id="stop4818"
         offset="0"
         style="stop-color:#565f91;stop-opacity:1" />
      <stop
         id="stop4820"
         offset="1"
         style="stop-color:#f9a825;stop-opacity:1" />
    </linearGradient>
    <linearGradient
       id="linearGradient4810"
       inkscape:collect="always">
      <stop
         id="stop4812"
         offset="0"
         style="stop-color:#565f91;stop-opacity:1" />
      <stop
         id="stop4814"
         offset="1"
         style="stop-color:#f9a825;stop-opacity:1" />
    </linearGradient>
    <linearGradient
       id="linearGradient4804"
       inkscape:collect="always">
      <stop
         id="stop4806"
         offset="0"
         style="stop-color:#565f91;stop-opacity:1" />
      <stop
         id="stop4808"
         offset="1"
         style="stop-color:#f9a825;stop-opacity:1" />
    </linearGradient>
    <linearGradient
       id="linearGradient4798"
       inkscape:collect="always">
      <stop
         id="stop4800"
         offset="0"
         style="stop-color:#565f91;stop-opacity:1" />
      <stop
         id="stop4802"
         offset="1"
         style="stop-color:#f9a825;stop-opacity:1" />
    </linearGradient>
    <linearGradient
       id="linearGradient4792"
       inkscape:collect="always">
      <stop
         id="stop4794"
         offset="0"
         style="stop-color:#565f91;stop-opacity:1" />
      <stop
         id="stop4796"
         offset="1"
         style="stop-color:#f9a825;stop-opacity:1" />
    </linearGradient>
    <linearGradient
       id="linearGradient4786"
       inkscape:collect="always">
      <stop
         id="stop4788"
         offset="0"
         style="stop-color:#565f91;stop-opacity:1" />
      <stop
         id="stop4790"
         offset="1"
         style="stop-color:#f9a825;stop-opacity:1" />
    </linearGradient>
    <linearGradient
       inkscape:collect="always"
       id="linearGradient8240">
      <stop
         style="stop-color:#565f91;stop-opacity:1"
         offset="0"
         id="stop8242" />
      <stop
         style="stop-color:#f9a825;stop-opacity:1"
         offset="1"
         id="stop8244" />
    </linearGradient>
    <linearGradient
       inkscape:collect="always"
       xlink:href="#linearGradient8240"
       id="linearGradient8246"
       x1="415.3671"
       y1="168.04254"
       x2="788.59357"
       y2="1063.318"
       gradientUnits="userSpaceOnUse" />
    <linearGradient
       inkscape:collect="always"
       xlink:href="#linearGradient4834"
       id="linearGradient8248"
       x1="551.74445"
       y1="822.25024"
       x2="753.27484"
       y2="1169.7125"
       gradientUnits="userSpaceOnUse" />
    <linearGradient
       inkscape:collect="always"
       xlink:href="#linearGradient4828"
       id="linearGradient8250"
       x1="534.16241"
       y1="652.18958"
       x2="860.28687"
       y2="886.68353"
       gradientUnits="userSpaceOnUse" />
    <linearGradient
       inkscape:collect="always"
       xlink:href="#linearGradient4822"
       id="linearGradient8252"
       x1="980.70935"
       y1="865.4209"
       x2="1126.0155"
       y2="1239.8948"
       gradientUnits="userSpaceOnUse" />
    <linearGradient
       inkscape:collect="always"
       xlink:href="#linearGradient4816"
       id="linearGradient8254"
       x1="497.84421"
       y1="884.69153"
       x2="679.89618"
       y2="1242.744"
       gradientUnits="userSpaceOnUse" />
    <linearGradient
       inkscape:collect="always"
       xlink:href="#linearGradient4810"
       id="linearGradient8256"
       x1="260.37741"
       y1="-683.48694"
       x2="260.37741"
       y2="1124.0603"
       gradientUnits="userSpaceOnUse"
       gradientTransform="translate(320.75472,-71.698112)" />
    <linearGradient
       inkscape:collect="always"
       xlink:href="#linearGradient4804"
       id="linearGradient8258"
       x1="-298.11313"
       y1="68.247665"
       x2="-298.11313"
       y2="1875.7949"
       gradientUnits="userSpaceOnUse"
       gradientTransform="translate(879.24526,-823.43271)" />
    <linearGradient
       inkscape:collect="always"
       xlink:href="#linearGradient4798"
       id="linearGradient8260"
       x1="633.96234"
       y1="-279.71335"
       x2="633.96234"
       y2="1527.8339"
       gradientUnits="userSpaceOnUse"
       gradientTransform="translate(-52.830198,-475.4717)" />
    <linearGradient
       inkscape:collect="always"
       xlink:href="#linearGradient4792"
       id="linearGradient8262"
       x1="470.23279"
       y1="-1057.5737"
       x2="470.23279"
       y2="749.97351"
       gradientUnits="userSpaceOnUse"
       gradientTransform="translate(110.89934,302.38863)" />
    <linearGradient
       inkscape:collect="always"
       xlink:href="#linearGradient4786"
       id="linearGradient8264"
       x1="732.85754"
       y1="712.65698"
       x2="790.92096"
       y2="1110.1154"
       gradientUnits="userSpaceOnUse" />
  </defs>
  <sodipodi:namedview
     id="base"
     pagecolor="#ffffff"
     bordercolor="#666666"
     borderopacity="1.0"
     inkscape:pageopacity="0.0"
     inkscape:pageshadow="2"
     inkscape:zoom="0.265"
     inkscape:cx="200"
     inkscape:cy="888.17392"
     inkscape:document-units="px"
     inkscape:current-layer="layer1"
     showgrid="false"
     units="px"
     inkscape:showpageshadow="false"
     inkscape:snap-page="true"
     inkscape:snap-bbox="true"
     inkscape:bbox-paths="true"
     inkscape:bbox-nodes="true"
     inkscape:snap-bbox-edge-midpoints="true"
     inkscape:snap-bbox-midpoints="true"
     inkscape:window-width="1920"
     inkscape:window-height="1017"
     inkscape:window-x="-8"
     inkscape:window-y="-8"
     inkscape:window-maximized="1"
     inkscape:snap-global="false" />
  <metadata
     id="metadata6193">
    <rdf:RDF>
      <cc:Work
         rdf:about="">
        <dc:format>image/svg+xml</dc:format>
        <dc:type
           rdf:resource="http://purl.org/dc/dcmitype/StillImage" />
        <dc:title></dc:title>
      </cc:Work>
    </rdf:RDF>
  </metadata>
  <g
     inkscape:label="Layer 1"
     inkscape:groupmode="layer"
     id="layer1"
     transform="translate(0,747.63784)">
    <path
       sodipodi:type="star"
       style="color:#000000;clip-rule:nonzero;display:inline;overflow:visible;visibility:visible;opacity:0.85;isolation:auto;mix-blend-mode:normal;color-interpolation:sRGB;color-interpolation-filters:linearRGB;solid-color:#000000;solid-opacity:1;fill:url(#linearGradient8264);fill-opacity:1;fill-rule:nonzero;stroke:none;stroke-width:1;stroke-linecap:butt;stroke-linejoin:miter;stroke-miterlimit:4;stroke-dasharray:none;stroke-dashoffset:0;stroke-opacity:1;color-rendering:auto;image-rendering:auto;shape-rendering:auto;text-rendering:auto;enable-background:accumulate"
       id="path4749"
       sodipodi:sides="8"
       sodipodi:cx="849.92682"
       sodipodi:cy="888.37976"
       sodipodi:r1="44.517704"
       sodipodi:r2="37.380981"
       sodipodi:arg1="-0.78539816"
       sodipodi:arg2="-0.39269908"
       inkscape:flatsided="false"
       inkscape:rounded="0.456183"
       inkscape:randomized="0"
       d="m 881.40559,856.90099 c 5.62678,5.62679 0.0116,9.82194 3.05675,17.17369 3.0452,7.35175 9.98218,6.34761 9.98218,14.30508 0,7.95748 -6.93698,6.95333 -9.98218,14.30508 -3.04519,7.35175 2.57003,11.54691 -3.05675,17.17369 -5.62679,5.62679 -9.82194,0.0116 -17.17369,3.05675 -7.35175,3.0452 -6.34761,9.98218 -14.30508,9.98218 -7.95748,0 -6.95333,-6.93698 -14.30508,-9.98218 -7.35175,-3.04519 -11.54691,2.57004 -17.17369,-3.05675 -5.62679,-5.62678 -0.0116,-9.82194 -3.05675,-17.17369 -3.0452,-7.35175 -9.98219,-6.3476 -9.98219,-14.30508 0,-7.95747 6.93699,-6.95333 9.98219,-14.30508 3.04519,-7.35175 -2.57004,-11.5469 3.05675,-17.17369 5.62678,-5.62678 9.82194,-0.0116 17.17369,-3.05675 7.35175,-3.0452 6.3476,-9.98218 14.30508,-9.98218 7.95747,0 6.95333,6.93698 14.30508,9.98218 7.35175,3.04519 11.5469,-2.57003 17.17369,3.05675 z"
       transform="matrix(4.452737,0.65048568,-0.65048568,4.452737,-2218.5166,-4405.1725)" />
    <path
       sodipodi:type="star"
       style="color:#000000;clip-rule:nonzero;display:inline;overflow:visible;visibility:visible;opacity:0.85;isolation:auto;mix-blend-mode:normal;color-interpolation:sRGB;color-interpolation-filters:linearRGB;solid-color:#000000;solid-opacity:1;fill:url(#linearGradient8262);fill-opacity:1;fill-rule:nonzero;stroke:none;stroke-width:1;stroke-linecap:butt;stroke-linejoin:miter;stroke-miterlimit:4;stroke-dasharray:none;stroke-dashoffset:0;stroke-opacity:1;color-rendering:auto;image-rendering:auto;shape-rendering:auto;text-rendering:auto;enable-background:accumulate"
       id="path4751"
       sodipodi:sides="4"
       sodipodi:cx="1476.2326"
       sodipodi:cy="719.6646"
       sodipodi:r1="230.12918"
       sodipodi:r2="115.41948"
       sodipodi:arg1="-2.910502"
       sodipodi:arg2="-2.1251038"
       inkscape:flatsided="false"
       inkscape:rounded="0.456183"
       inkscape:randomized="0"
       d="m 1252.2208,666.95598 c 17.7062,-75.25101 97.5296,-4.73815 163.2602,-45.42853 65.7306,-40.69038 38.2092,-143.58065 113.4602,-125.87453 75.251,17.70612 4.7381,97.5295 45.4285,163.26012 40.6904,65.73061 143.5807,38.2092 125.8745,113.4602 -17.7061,75.25101 -97.5295,4.73815 -163.2601,45.42853 -65.7306,40.69038 -38.2092,143.58066 -113.4602,125.87454 -75.251,-17.70612 -4.7381,-97.52951 -45.4285,-163.26012 -40.6904,-65.73062 -143.5807,-38.20921 -125.8746,-113.46021 z" />
    <path
       sodipodi:type="star"
       style="color:#000000;clip-rule:nonzero;display:inline;overflow:visible;visibility:visible;opacity:0.85;isolation:auto;mix-blend-mode:normal;color-interpolation:sRGB;color-interpolation-filters:linearRGB;solid-color:#000000;solid-opacity:1;fill:url(#linearGradient8260);fill-opacity:1;fill-rule:nonzero;stroke:none;stroke-width:1;stroke-linecap:butt;stroke-linejoin:miter;stroke-miterlimit:4;stroke-dasharray:none;stroke-dashoffset:0;stroke-opacity:1;color-rendering:auto;image-rendering:auto;shape-rendering:auto;text-rendering:auto;enable-background:accumulate"
       id="path4753"
       sodipodi:sides="6"
       sodipodi:cx="310.33409"
       sodipodi:cy="255.54385"
       sodipodi:r1="143.25925"
       sodipodi:r2="108.44334"
       sodipodi:arg1="0.89728843"
       sodipodi:arg2="1.428139"
       inkscape:flatsided="false"
       inkscape:rounded="0.456183"
       inkscape:randomized="0"
       d="m 399.68941,367.5208 c -26.56805,20.88678 -40.52133,-9.68274 -73.93752,-4.63521 -32.72305,4.94283 -36.99325,38.33531 -67.71502,26.03073 -31.37251,-12.56522 -11.87517,-39.93387 -32.95456,-66.34938 -20.64214,-25.86758 -51.69598,-12.86944 -56.40078,-45.62757 -4.80446,-33.452 28.64616,-30.25113 40.98297,-61.71416 12.08091,-30.81041 -14.70273,-51.20476 11.31424,-71.6583 26.56805,-20.88678 40.52133,9.68273 73.93752,4.63521 32.72305,-4.94283 36.99326,-38.33531 67.71502,-26.03073 31.37252,12.56522 11.87518,39.93387 32.95456,66.34937 20.64214,25.86759 51.69598,12.86945 56.40078,45.62757 4.80446,33.452 -28.64616,30.25114 -40.98297,61.71417 -12.08091,30.81041 14.70273,51.20476 -11.31424,71.6583 z" />
    <path
       sodipodi:type="star"
       style="color:#000000;clip-rule:nonzero;display:inline;overflow:visible;visibility:visible;opacity:0.85;isolation:auto;mix-blend-mode:normal;color-interpolation:sRGB;color-interpolation-filters:linearRGB;solid-color:#000000;solid-opacity:1;fill:url(#linearGradient8258);fill-opacity:1;fill-rule:nonzero;stroke:none;stroke-width:1;stroke-linecap:butt;stroke-linejoin:miter;stroke-miterlimit:4;stroke-dasharray:none;stroke-dashoffset:0;stroke-opacity:1;color-rendering:auto;image-rendering:auto;shape-rendering:auto;text-rendering:auto;enable-background:accumulate"
       id="path4755"
       sodipodi:sides="3"
       sodipodi:cx="1507.4479"
       sodipodi:cy="-524.41162"
       sodipodi:r1="193.01842"
       sodipodi:r2="102.9846"
       sodipodi:arg1="0.47891361"
       sodipodi:arg2="1.507456"
       inkscape:flatsided="false"
       inkscape:rounded="0.456183"
       inkscape:randomized="0"
       d="m 1678.751,-435.46578 c -33.5048,67.58734 -89.4234,10.46393 -164.7844,13.83224 -77.1106,3.44651 -126.4496,65.36977 -169.1996,1.10183 -41.78,-62.80968 35.6497,-82.67491 70.4131,-149.62358 35.5705,-68.50303 6.6129,-142.19348 83.6456,-147.08207 75.2847,-4.77768 53.7737,72.21097 94.3712,135.79133 41.5401,65.05651 119.8367,76.8237 85.5541,145.98025 z" />
    <path
       sodipodi:type="star"
       style="color:#000000;clip-rule:nonzero;display:inline;overflow:visible;visibility:visible;opacity:0.85;isolation:auto;mix-blend-mode:normal;color-interpolation:sRGB;color-interpolation-filters:linearRGB;solid-color:#000000;solid-opacity:1;fill:url(#linearGradient8256);fill-opacity:1;fill-rule:nonzero;stroke:none;stroke-width:1;stroke-linecap:butt;stroke-linejoin:miter;stroke-miterlimit:4;stroke-dasharray:none;stroke-dashoffset:0;stroke-opacity:1;color-rendering:auto;image-rendering:auto;shape-rendering:auto;text-rendering:auto;enable-background:accumulate"
       id="path4757"
       sodipodi:sides="10"
       sodipodi:cx="594.75419"
       sodipodi:cy="-487.47112"
       sodipodi:r1="126.91245"
       sodipodi:r2="138.26738"
       sodipodi:arg1="0.43436728"
       sodipodi:arg2="0.70769223"
       inkscape:flatsided="false"
       inkscape:rounded="0.456183"
       inkscape:randomized="0"
       d="m 709.88113,-434.06174 c -6.61803,15.94207 1.68547,23.82927 -10.0625,36.47573 -14.94559,16.08865 -24.5856,9.53478 -43.31804,20.99389 -14.72461,9.00742 -12.64291,20.26898 -29.58062,23.5949 -21.54791,4.23119 -25.49458,-6.73726 -47.38494,-8.47729 -17.20689,-1.36776 -22.14214,8.96663 -37.79996,1.70161 -19.91965,-9.24244 -16.66548,-20.43589 -33.35239,-34.71044 -13.11672,-11.22049 -23.18382,-5.76066 -31.58099,-20.84162 -10.68277,-19.18577 -1.47075,-26.32871 -6.58037,-47.68537 -4.01641,-16.78739 -15.37007,-18.28759 -13.29916,-35.42407 2.63457,-21.80079 14.28577,-22.16486 22.70513,-42.44613 6.61803,-15.94206 -1.68547,-23.82926 10.0625,-36.47572 14.9456,-16.08865 24.58561,-9.53478 43.31804,-20.99389 14.72461,-9.00742 12.64292,-20.26898 29.58063,-23.5949 21.54791,-4.23119 25.49458,6.73726 47.38493,8.47729 17.20689,1.36776 22.14214,-8.96663 37.79996,-1.70162 19.91965,9.24245 16.66549,20.4359 33.35239,34.71045 13.11672,11.22049 23.18382,5.76066 31.581,20.84162 10.68276,19.18577 1.47074,26.32871 6.58036,47.68537 4.01641,16.78738 15.37007,18.28759 13.29916,35.42407 -2.63457,21.80079 -14.28577,22.16486 -22.70513,42.44612 z" />
    <path
       sodipodi:type="star"
       style="color:#000000;clip-rule:nonzero;display:inline;overflow:visible;visibility:visible;opacity:0.85;isolation:auto;mix-blend-mode:normal;color-interpolation:sRGB;color-interpolation-filters:linearRGB;solid-color:#000000;solid-opacity:1;fill:url(#linearGradient8254);fill-opacity:1;fill-rule:nonzero;stroke:none;stroke-width:1;stroke-linecap:butt;stroke-linejoin:miter;stroke-miterlimit:4;stroke-dasharray:none;stroke-dashoffset:0;stroke-opacity:1;color-rendering:auto;image-rendering:auto;shape-rendering:auto;text-rendering:auto;enable-background:accumulate"
       id="path4751-2"
       sodipodi:sides="4"
       sodipodi:cx="622.98682"
       sodipodi:cy="919.85846"
       sodipodi:r1="26.544722"
       sodipodi:r2="13.313296"
       sodipodi:arg1="-2.910502"
       sodipodi:arg2="-2.1251038"
       inkscape:flatsided="false"
       inkscape:rounded="0.456183"
       inkscape:randomized="0"
       d="m 597.14773,913.77867 c 2.04235,-8.67998 11.24974,-0.54653 18.83157,-5.24004 7.58183,-4.69352 4.40732,-16.56161 13.0873,-14.51926 8.67998,2.04235 0.54653,11.24974 5.24005,18.83157 4.69351,7.58184 16.5616,4.40732 14.51925,13.0873 -2.04234,8.67999 -11.24974,0.54654 -18.83157,5.24005 -7.58183,4.69352 -4.40732,16.56161 -13.0873,14.51926 -8.67998,-2.04235 -0.54653,-11.24974 -5.24005,-18.83158 -4.69351,-7.58183 -16.5616,-4.40731 -14.51925,-13.0873 z"
       transform="matrix(4.0112721,2.0395329,-2.0395329,4.0112721,388.501,-5319.2931)" />
    <path
       sodipodi:type="star"
       style="color:#000000;clip-rule:nonzero;display:inline;overflow:visible;visibility:visible;opacity:0.85;isolation:auto;mix-blend-mode:normal;color-interpolation:sRGB;color-interpolation-filters:linearRGB;solid-color:#000000;solid-opacity:1;fill:url(#linearGradient8252);fill-opacity:1;fill-rule:nonzero;stroke:none;stroke-width:1;stroke-linecap:butt;stroke-linejoin:miter;stroke-miterlimit:4;stroke-dasharray:none;stroke-dashoffset:0;stroke-opacity:1;color-rendering:auto;image-rendering:auto;shape-rendering:auto;text-rendering:auto;enable-background:accumulate"
       id="path4757-7"
       sodipodi:sides="10"
       sodipodi:cx="949.15875"
       sodipodi:cy="1009.1704"
       sodipodi:r1="12.42517"
       sodipodi:r2="13.536857"
       sodipodi:arg1="0.43436728"
       sodipodi:arg2="0.70769223"
       inkscape:flatsided="false"
       inkscape:rounded="0.456183"
       inkscape:randomized="0"
       d="m 960.43008,1014.3994 c -0.648,1.5607 0.16495,2.3329 -0.98516,3.5711 -1.46314,1.5752 -2.40696,0.9335 -4.24098,2.0554 -1.44163,0.8817 -1.2378,1.9843 -2.89605,2.31 -2.10959,0.4143 -2.49601,-0.6595 -4.63915,-0.83 -1.68461,-0.134 -2.16775,0.8778 -3.70075,0.1666 -1.95024,-0.9048 -1.63167,-2.0007 -3.26531,-3.3983 -1.28412,-1.0985 -2.2697,-0.564 -3.09189,-2.0404 -1.04597,-1.8783 -0.14409,-2.5777 -0.64424,-4.6686 -0.39314,-1.6436 -1.5047,-1.7904 -1.30203,-3.4681 0.25782,-2.1344 1.39853,-2.1701 2.22291,-4.1557 0.648,-1.5607 -0.16495,-2.3329 0.98515,-3.5711 1.46315,-1.57516 2.40696,-0.93353 4.24099,-2.05533 1.44163,-0.88179 1.2378,-1.98432 2.89604,-2.31002 2.1096,-0.41436 2.49602,0.6595 4.63915,0.82995 1.68461,0.13399 2.16776,-0.87778 3.70075,-0.16659 1.95025,0.90477 1.63167,2.00067 3.26531,3.39829 1.28413,1.0986 2.26971,0.564 3.09189,2.0404 1.04598,1.8783 0.14409,2.5777 0.64424,4.6686 0.39315,1.6436 1.5047,1.7904 1.30204,3.4682 -0.25783,2.1343 -1.39853,2.17 -2.22291,4.1556 z"
       transform="matrix(4.1952405,1.6278684,-1.6278684,4.1952405,-2124.3882,-5982.2996)" />
    <path
       sodipodi:type="star"
       style="color:#000000;clip-rule:nonzero;display:inline;overflow:visible;visibility:visible;opacity:0.85;isolation:auto;mix-blend-mode:normal;color-interpolation:sRGB;color-interpolation-filters:linearRGB;solid-color:#000000;solid-opacity:1;fill:url(#linearGradient8250);fill-opacity:1;fill-rule:nonzero;stroke:none;stroke-width:1;stroke-linecap:butt;stroke-linejoin:miter;stroke-miterlimit:4;stroke-dasharray:none;stroke-dashoffset:0;stroke-opacity:1;color-rendering:auto;image-rendering:auto;shape-rendering:auto;text-rendering:auto;enable-background:accumulate"
       id="path4755-8"
       sodipodi:sides="3"
       sodipodi:cx="757.74072"
       sodipodi:cy="916.63092"
       sodipodi:r1="16.883854"
       sodipodi:r2="9.0083475"
       sodipodi:arg1="0.47891361"
       sodipodi:arg2="1.507456"
       inkscape:flatsided="false"
       inkscape:rounded="0.456183"
       inkscape:randomized="0"
       d="m 772.72508,924.41126 c -2.93095,5.91195 -7.82212,0.91519 -14.41415,1.20994 -6.74507,0.3016 -11.06108,5.7182 -14.80035,0.0964 -3.65443,-5.49425 3.11847,-7.23175 6.15922,-13.08798 3.11135,-5.99221 0.57844,-12.43828 7.31672,-12.86568 6.58537,-0.4177 4.70364,6.31656 8.25491,11.87804 3.63373,5.69061 10.48265,6.72008 7.48365,12.7693 z"
       transform="matrix(2.6270419,3.6535803,-3.6535803,2.6270419,1560.6921,-4420.1198)" />
    <path
       sodipodi:type="star"
       style="color:#000000;clip-rule:nonzero;display:inline;overflow:visible;visibility:visible;opacity:0.85;isolation:auto;mix-blend-mode:normal;color-interpolation:sRGB;color-interpolation-filters:linearRGB;solid-color:#000000;solid-opacity:1;fill:url(#linearGradient8248);fill-opacity:1;fill-rule:nonzero;stroke:none;stroke-width:1;stroke-linecap:butt;stroke-linejoin:miter;stroke-miterlimit:4;stroke-dasharray:none;stroke-dashoffset:0;stroke-opacity:1;color-rendering:auto;image-rendering:auto;shape-rendering:auto;text-rendering:auto;enable-background:accumulate"
       id="path4753-3"
       sodipodi:sides="6"
       sodipodi:cx="814.93445"
       sodipodi:cy="864.95367"
       sodipodi:r1="17.962692"
       sodipodi:r2="13.597269"
       sodipodi:arg1="0.89728843"
       sodipodi:arg2="1.428139"
       inkscape:flatsided="false"
       inkscape:rounded="0.456183"
       inkscape:randomized="0"
       d="m 826.13835,878.99401 c -3.33124,2.61893 -5.0808,-1.21405 -9.27072,-0.58119 -4.10302,0.61973 -4.63842,4.80667 -8.49052,3.26388 -3.93368,-1.57546 -1.489,-5.00712 -4.13203,-8.31927 -2.58821,-3.24345 -6.48191,-1.61366 -7.07187,-5.72106 -0.60245,-4.1944 3.5918,-3.79308 5.13869,-7.73809 1.5148,-3.86318 -1.84349,-6.42032 1.41865,-8.98494 3.33123,-2.61894 5.0808,1.21405 9.27072,0.58119 4.10302,-0.61973 4.63842,-4.80667 8.49051,-3.26388 3.93369,1.57546 1.48901,5.00712 4.13204,8.31927 2.58821,3.24345 6.48191,1.61366 7.07186,5.72106 0.60245,4.1944 -3.59179,3.79308 -5.13868,7.73809 -1.51481,3.86318 1.84349,6.42032 -1.41865,8.98494 z"
       transform="matrix(3.8926292,2.2577502,-2.2577502,3.8926292,289.83129,-5201.6016)" />
    <path
       sodipodi:type="star"
       style="color:#000000;clip-rule:nonzero;display:inline;overflow:visible;visibility:visible;opacity:0.85;isolation:auto;mix-blend-mode:normal;color-interpolation:sRGB;color-interpolation-filters:linearRGB;solid-color:#000000;solid-opacity:1;fill:url(#linearGradient8246);fill-opacity:1;fill-rule:nonzero;stroke:none;stroke-width:1;stroke-linecap:butt;stroke-linejoin:miter;stroke-miterlimit:4;stroke-dasharray:none;stroke-dashoffset:0;stroke-opacity:1;color-rendering:auto;image-rendering:auto;shape-rendering:auto;text-rendering:auto;enable-background:accumulate"
       id="path4749-1"
       sodipodi:sides="8"
       sodipodi:cx="849.92682"
       sodipodi:cy="888.37976"
       sodipodi:r1="44.517704"
       sodipodi:r2="37.380981"
       sodipodi:arg1="-0.78539816"
       sodipodi:arg2="-0.39269908"
       inkscape:flatsided="false"
       inkscape:rounded="0.456183"
       inkscape:randomized="0"
       d="m 881.40559,856.90099 c 5.62678,5.62679 0.0116,9.82194 3.05675,17.17369 3.0452,7.35175 9.98218,6.34761 9.98218,14.30508 0,7.95748 -6.93698,6.95333 -9.98218,14.30508 -3.04519,7.35175 2.57003,11.54691 -3.05675,17.17369 -5.62679,5.62679 -9.82194,0.0116 -17.17369,3.05675 -7.35175,3.0452 -6.34761,9.98218 -14.30508,9.98218 -7.95748,0 -6.95333,-6.93698 -14.30508,-9.98218 -7.35175,-3.04519 -11.54691,2.57004 -17.17369,-3.05675 -5.62679,-5.62678 -0.0116,-9.82194 -3.05675,-17.17369 -3.0452,-7.35175 -9.98219,-6.3476 -9.98219,-14.30508 0,-7.95747 6.93699,-6.95333 9.98219,-14.30508 3.04519,-7.35175 -2.57004,-11.5469 3.05675,-17.17369 5.62678,-5.62678 9.82194,-0.0116 17.17369,-3.05675 7.35175,-3.0452 6.3476,-9.98218 14.30508,-9.98218 7.95747,0 6.95333,6.93698 14.30508,9.98218 7.35175,3.04519 11.5469,-2.57003 17.17369,3.05675 z"
       transform="matrix(1.7200519,0.71706295,-0.71706295,1.7200519,-12.823736,-1342.0713)" />
  </g>
</svg>
