<?xml version="1.0" encoding="UTF-8" standalone="no"?>
<!-- Created with Inkscape (http://www.inkscape.org/) -->

<svg
   xmlns:dc="http://purl.org/dc/elements/1.1/"
   xmlns:cc="http://creativecommons.org/ns#"
   xmlns:rdf="http://www.w3.org/1999/02/22-rdf-syntax-ns#"
   xmlns:svg="http://www.w3.org/2000/svg"
   xmlns="http://www.w3.org/2000/svg"
   xmlns:sodipodi="http://sodipodi.sourceforge.net/DTD/sodipodi-0.dtd"
   xmlns:inkscape="http://www.inkscape.org/namespaces/inkscape"
   width="1920"
   height="1920"
   viewBox="0 0 1920 1920"
   id="svg2"
   version="1.1"
   inkscape:version="0.91 r13725"
   sodipodi:docname="polar_2.svg">
  <defs
     id="defs4" />
  <sodipodi:namedview
     id="base"
     pagecolor="#ffffff"
     bordercolor="#666666"
     borderopacity="1.0"
     inkscape:pageopacity="0.0"
     inkscape:pageshadow="2"
     inkscape:zoom="0.48295393"
     inkscape:cx="762.898"
     inkscape:cy="908.60552"
     inkscape:document-units="px"
     inkscape:current-layer="layer1"
     showgrid="false"
     units="px"
     inkscape:snap-bbox="true"
     inkscape:bbox-paths="true"
     inkscape:bbox-nodes="true"
     inkscape:snap-bbox-edge-midpoints="true"
     inkscape:snap-bbox-midpoints="true"
     inkscape:snap-page="true"
     inkscape:snap-global="false"
     inkscape:window-width="1920"
     inkscape:window-height="1017"
     inkscape:window-x="-8"
     inkscape:window-y="-8"
     inkscape:window-maximized="1"
     showguides="true"
     inkscape:guide-bbox="true">
    <sodipodi:guide
       position="354.07103,960"
       orientation="0,1"
       id="guide4849"
       inkscape:label=""
       inkscape:color="rgb(0,0,255)" />
  </sodipodi:namedview>
  <metadata
     id="metadata7">
    <rdf:RDF>
      <cc:Work
         rdf:about="">
        <dc:format>image/svg+xml</dc:format>
        <dc:type
           rdf:resource="http://purl.org/dc/dcmitype/StillImage" />
        <dc:title />
      </cc:Work>
    </rdf:RDF>
  </metadata>
  <g
     inkscape:label="Layer 1"
     inkscape:groupmode="layer"
     id="layer1"
     transform="translate(0,867.63783)">
    <rect
       style="color:#000000;clip-rule:nonzero;display:inline;overflow:visible;visibility:visible;opacity:1;isolation:auto;mix-blend-mode:normal;color-interpolation:sRGB;color-interpolation-filters:linearRGB;solid-color:#000000;solid-opacity:1;fill:#6d6d6d;fill-opacity:1;fill-rule:nonzero;stroke:none;stroke-width:1;stroke-linecap:butt;stroke-linejoin:miter;stroke-miterlimit:4;stroke-dasharray:none;stroke-dashoffset:0;stroke-opacity:1;color-rendering:auto;image-rendering:auto;shape-rendering:auto;text-rendering:auto;enable-background:accumulate"
       id="rect4745"
       width="1920"
       height="1920"
       x="0"
       y="-867.63782" />
    <rect
       style="color:#000000;clip-rule:nonzero;display:inline;overflow:visible;visibility:visible;opacity:0.5;isolation:auto;mix-blend-mode:normal;color-interpolation:sRGB;color-interpolation-filters:linearRGB;solid-color:#000000;solid-opacity:1;fill:#3f51b5;fill-opacity:1;fill-rule:nonzero;stroke:none;stroke-width:1;stroke-linecap:butt;stroke-linejoin:miter;stroke-miterlimit:4;stroke-dasharray:none;stroke-dashoffset:0;stroke-opacity:1;color-rendering:auto;image-rendering:auto;shape-rendering:auto;text-rendering:auto;enable-background:accumulate"
       id="rect4745-0"
       width="1920"
       height="1920"
       x="0"
       y="-867.63782" />
    <rect
       style="color:#000000;clip-rule:nonzero;display:inline;overflow:visible;visibility:visible;opacity:0.85;isolation:auto;mix-blend-mode:normal;color-interpolation:sRGB;color-interpolation-filters:linearRGB;solid-color:#000000;solid-opacity:1;fill:none;fill-opacity:1;fill-rule:nonzero;stroke:none;stroke-width:50;stroke-linecap:butt;stroke-linejoin:miter;stroke-miterlimit:4;stroke-dasharray:none;stroke-dashoffset:0;stroke-opacity:1;color-rendering:auto;image-rendering:auto;shape-rendering:auto;text-rendering:auto;enable-background:accumulate"
       id="rect5426"
       width="1369.019"
       height="678.88727"
       x="264.24597"
       y="92.36219" />
    <path
       sodipodi:type="star"
       style="color:#000000;clip-rule:nonzero;display:inline;overflow:visible;visibility:visible;opacity:1;isolation:auto;mix-blend-mode:normal;color-interpolation:sRGB;color-interpolation-filters:linearRGB;solid-color:#000000;solid-opacity:1;fill:#ffffff;fill-opacity:1;fill-rule:nonzero;stroke:none;stroke-width:1;stroke-linecap:butt;stroke-linejoin:miter;stroke-miterlimit:4;stroke-dasharray:none;stroke-dashoffset:0;stroke-opacity:1;color-rendering:auto;image-rendering:auto;shape-rendering:auto;text-rendering:auto;enable-background:accumulate"
       id="path4749"
       sodipodi:sides="8"
       sodipodi:cx="849.92682"
       sodipodi:cy="888.37976"
       sodipodi:r1="44.517704"
       sodipodi:r2="37.380981"
       sodipodi:arg1="-0.78539816"
       sodipodi:arg2="-0.39269908"
       inkscape:flatsided="false"
       inkscape:rounded="0.456183"
       inkscape:randomized="0"
       d="m 881.40559,856.90099 c 5.62678,5.62679 0.0116,9.82194 3.05675,17.17369 3.0452,7.35175 9.98218,6.34761 9.98218,14.30508 0,7.95748 -6.93698,6.95333 -9.98218,14.30508 -3.04519,7.35175 2.57003,11.54691 -3.05675,17.17369 -5.62679,5.62679 -9.82194,0.0116 -17.17369,3.05675 -7.35175,3.0452 -6.34761,9.98218 -14.30508,9.98218 -7.95748,0 -6.95333,-6.93698 -14.30508,-9.98218 -7.35175,-3.04519 -11.54691,2.57004 -17.17369,-3.05675 -5.62679,-5.62678 -0.0116,-9.82194 -3.05675,-17.17369 -3.0452,-7.35175 -9.98219,-6.3476 -9.98219,-14.30508 0,-7.95747 6.93699,-6.95333 9.98219,-14.30508 3.04519,-7.35175 -2.57004,-11.5469 3.05675,-17.17369 5.62678,-5.62678 9.82194,-0.0116 17.17369,-3.05675 7.35175,-3.0452 6.3476,-9.98218 14.30508,-9.98218 7.95747,0 6.95333,6.93698 14.30508,9.98218 7.35175,3.04519 11.5469,-2.57003 17.17369,3.05675 z"
       transform="matrix(0.73346745,0.10714985,-0.10714985,0.73346745,1182.105,-736.65055)" />
    <path
       sodipodi:type="star"
       style="color:#000000;clip-rule:nonzero;display:inline;overflow:visible;visibility:visible;opacity:1;isolation:auto;mix-blend-mode:normal;color-interpolation:sRGB;color-interpolation-filters:linearRGB;solid-color:#000000;solid-opacity:1;fill:#ffffff;fill-opacity:1;fill-rule:nonzero;stroke:none;stroke-width:1;stroke-linecap:butt;stroke-linejoin:miter;stroke-miterlimit:4;stroke-dasharray:none;stroke-dashoffset:0;stroke-opacity:1;color-rendering:auto;image-rendering:auto;shape-rendering:auto;text-rendering:auto;enable-background:accumulate"
       id="path4751"
       sodipodi:sides="4"
       sodipodi:cx="496.38919"
       sodipodi:cy="-38.683784"
       sodipodi:r1="37.907536"
       sodipodi:r2="19.012222"
       sodipodi:arg1="-2.910502"
       sodipodi:arg2="-2.1251038"
       inkscape:flatsided="false"
       inkscape:rounded="0.456183"
       inkscape:randomized="0"
       d="m 459.48934,-47.366101 c 2.91661,-12.395561 16.06535,-0.780478 26.89268,-7.483114 10.82733,-6.702635 6.29393,-23.651018 18.68949,-20.734416 12.39556,2.916603 0.78047,16.065341 7.48311,26.892676 6.70264,10.827334 23.65102,6.293926 20.73442,18.689487 -2.91661,12.395561 -16.06534,0.780478 -26.89268,7.483114 -10.82733,6.702635 -6.29393,23.6510183 -18.68949,20.7344155 -12.39556,-2.9166028 -0.78047,-16.0653405 -7.48311,-26.8926755 -6.70264,-10.827334 -23.65102,-6.293926 -20.73442,-18.689487 z" />
    <path
       sodipodi:type="star"
       style="color:#000000;clip-rule:nonzero;display:inline;overflow:visible;visibility:visible;opacity:1;isolation:auto;mix-blend-mode:normal;color-interpolation:sRGB;color-interpolation-filters:linearRGB;solid-color:#000000;solid-opacity:1;fill:#ffffff;fill-opacity:1;fill-rule:nonzero;stroke:none;stroke-width:1;stroke-linecap:butt;stroke-linejoin:miter;stroke-miterlimit:4;stroke-dasharray:none;stroke-dashoffset:0;stroke-opacity:1;color-rendering:auto;image-rendering:auto;shape-rendering:auto;text-rendering:auto;enable-background:accumulate"
       id="path4753"
       sodipodi:sides="6"
       sodipodi:cx="335.43573"
       sodipodi:cy="93.435875"
       sodipodi:r1="23.598068"
       sodipodi:r2="17.863094"
       sodipodi:arg1="0.89728843"
       sodipodi:arg2="1.428139"
       inkscape:flatsided="false"
       inkscape:rounded="0.456183"
       inkscape:randomized="0"
       d="m 350.15459,111.88103 c -4.37633,3.44057 -6.67478,-1.59493 -12.17919,-0.76352 -5.39024,0.81416 -6.09362,6.31466 -11.15421,4.28785 -5.16779,-2.06973 -1.95615,-6.57799 -5.42837,-10.92925 -3.40021,-4.261 -8.51546,-2.1199 -9.2905,-7.515904 -0.79145,-5.510302 4.71864,-4.983067 6.75083,-10.165733 1.99004,-5.075165 -2.42184,-8.434555 1.86372,-11.803757 4.37633,-3.440567 6.67478,1.59493 12.17919,0.763523 5.39024,-0.814161 6.09362,-6.314655 11.15421,-4.287853 5.16779,2.069733 1.95615,6.577996 5.42837,10.929255 3.40021,4.261004 8.51546,2.119899 9.2905,7.515903 0.79145,5.510302 -4.71864,4.983067 -6.75083,10.165736 -1.99004,5.07516 2.42184,8.43455 -1.86372,11.80375 z" />
    <path
       sodipodi:type="star"
       style="color:#000000;clip-rule:nonzero;display:inline;overflow:visible;visibility:visible;opacity:1;isolation:auto;mix-blend-mode:normal;color-interpolation:sRGB;color-interpolation-filters:linearRGB;solid-color:#000000;solid-opacity:1;fill:#ffffff;fill-opacity:1;fill-rule:nonzero;stroke:none;stroke-width:1;stroke-linecap:butt;stroke-linejoin:miter;stroke-miterlimit:4;stroke-dasharray:none;stroke-dashoffset:0;stroke-opacity:1;color-rendering:auto;image-rendering:auto;shape-rendering:auto;text-rendering:auto;enable-background:accumulate"
       id="path4755"
       sodipodi:sides="3"
       sodipodi:cx="1452.9609"
       sodipodi:cy="-43.907622"
       sodipodi:r1="31.794538"
       sodipodi:r2="16.963915"
       sodipodi:arg1="0.47891361"
       sodipodi:arg2="1.507456"
       inkscape:flatsided="false"
       inkscape:rounded="0.456183"
       inkscape:randomized="0"
       d="m 1481.1785,-29.256214 c -5.5194,11.133012 -14.7301,1.723451 -27.1438,2.278487 -12.7019,0.567923 -20.8294,10.768104 -27.871,0.181495 -6.8818,-10.346394 5.8725,-13.618353 11.5986,-24.646417 5.8591,-11.284107 1.0893,-23.422893 13.7784,-24.227775 12.4011,-0.786618 8.8576,11.894902 15.5451,22.36793 6.8427,10.716184 19.7401,12.654789 14.0927,24.04628 z" />
    <path
       sodipodi:type="star"
       style="color:#000000;clip-rule:nonzero;display:inline;overflow:visible;visibility:visible;opacity:1;isolation:auto;mix-blend-mode:normal;color-interpolation:sRGB;color-interpolation-filters:linearRGB;solid-color:#000000;solid-opacity:1;fill:#ffffff;fill-opacity:1;fill-rule:nonzero;stroke:none;stroke-width:1;stroke-linecap:butt;stroke-linejoin:miter;stroke-miterlimit:4;stroke-dasharray:none;stroke-dashoffset:0;stroke-opacity:1;color-rendering:auto;image-rendering:auto;shape-rendering:auto;text-rendering:auto;enable-background:accumulate"
       id="path4757"
       sodipodi:sides="10"
       sodipodi:cx="233.6825"
       sodipodi:cy="241.38976"
       sodipodi:r1="20.905378"
       sodipodi:r2="22.775793"
       sodipodi:arg1="0.43436728"
       sodipodi:arg2="0.70769223"
       inkscape:flatsided="false"
       inkscape:rounded="0.456183"
       inkscape:randomized="0"
       d="m 252.64653,250.1875 c -1.09026,2.62598 0.27753,3.92513 -1.65753,6.00839 -2.46175,2.65028 -4.04973,1.57073 -7.13547,3.45817 -2.42554,1.48362 -2.0826,3.33863 -4.8726,3.88662 -3.5494,0.69714 -4.19955,-1.10963 -7.80538,-1.39641 -2.83436,-0.22542 -3.64726,1.47689 -6.22652,0.2803 -3.28129,-1.52229 -2.74529,-3.36614 -5.4939,-5.7176 -2.16054,-1.84837 -3.81878,-0.94898 -5.20211,-3.43309 -1.75984,-3.16025 -0.24242,-4.33691 -1.08393,-7.85487 -0.66148,-2.7653 -2.53167,-3.01237 -2.19068,-5.83516 0.43381,-3.5911 2.35305,-3.65111 3.74005,-6.99184 1.09026,-2.62598 -0.27753,-3.92513 1.65753,-6.00839 2.46175,-2.65028 4.04973,-1.57073 7.13547,-3.45817 2.42554,-1.48362 2.0826,-3.33863 4.8726,-3.88662 3.5494,-0.69714 4.19955,1.10963 7.80538,1.39641 2.83436,0.22542 3.64726,-1.47689 6.22652,-0.2803 3.28129,1.52229 2.74529,3.36614 5.4939,5.7176 2.16054,1.84837 3.81878,0.94898 5.20211,3.43309 1.75984,3.16026 0.24242,4.33691 1.08393,7.85487 0.66148,2.7653 2.53167,3.01237 2.19068,5.83516 -0.43381,3.5911 -2.35305,3.65111 -3.74005,6.99184 z" />
    <path
       sodipodi:type="star"
       style="color:#000000;clip-rule:nonzero;display:inline;overflow:visible;visibility:visible;opacity:1;isolation:auto;mix-blend-mode:normal;color-interpolation:sRGB;color-interpolation-filters:linearRGB;solid-color:#000000;solid-opacity:1;fill:#ffffff;fill-opacity:1;fill-rule:nonzero;stroke:none;stroke-width:1;stroke-linecap:butt;stroke-linejoin:miter;stroke-miterlimit:4;stroke-dasharray:none;stroke-dashoffset:0;stroke-opacity:1;color-rendering:auto;image-rendering:auto;shape-rendering:auto;text-rendering:auto;enable-background:accumulate"
       id="path4751-2"
       sodipodi:sides="4"
       sodipodi:cx="622.98682"
       sodipodi:cy="919.85846"
       sodipodi:r1="26.544722"
       sodipodi:r2="13.313296"
       sodipodi:arg1="-2.910502"
       sodipodi:arg2="-2.1251038"
       inkscape:flatsided="false"
       inkscape:rounded="0.456183"
       inkscape:randomized="0"
       d="m 597.14773,913.77867 c 2.04235,-8.67998 11.24974,-0.54653 18.83157,-5.24004 7.58183,-4.69352 4.40732,-16.56161 13.0873,-14.51926 8.67998,2.04235 0.54653,11.24974 5.24005,18.83157 4.69351,7.58184 16.5616,4.40732 14.51925,13.0873 -2.04234,8.67999 -11.24974,0.54654 -18.83157,5.24005 -7.58183,4.69352 -4.40732,16.56161 -13.0873,14.51926 -8.67998,-2.04235 -0.54653,-11.24974 -5.24005,-18.83158 -4.69351,-7.58183 -16.5616,-4.40731 -14.51925,-13.0873 z"
       transform="matrix(0.66074814,0.33595765,-0.33595765,0.66074814,1373.6796,-565.10459)" />
    <path
       sodipodi:type="star"
       style="color:#000000;clip-rule:nonzero;display:inline;overflow:visible;visibility:visible;opacity:1;isolation:auto;mix-blend-mode:normal;color-interpolation:sRGB;color-interpolation-filters:linearRGB;solid-color:#000000;solid-opacity:1;fill:#ffffff;fill-opacity:1;fill-rule:nonzero;stroke:none;stroke-width:1;stroke-linecap:butt;stroke-linejoin:miter;stroke-miterlimit:4;stroke-dasharray:none;stroke-dashoffset:0;stroke-opacity:1;color-rendering:auto;image-rendering:auto;shape-rendering:auto;text-rendering:auto;enable-background:accumulate"
       id="path4757-7"
       sodipodi:sides="10"
       sodipodi:cx="949.15875"
       sodipodi:cy="1009.1704"
       sodipodi:r1="12.42517"
       sodipodi:r2="13.536857"
       sodipodi:arg1="0.43436728"
       sodipodi:arg2="0.70769223"
       inkscape:flatsided="false"
       inkscape:rounded="0.456183"
       inkscape:randomized="0"
       d="m 960.43008,1014.3994 c -0.648,1.5607 0.16495,2.3329 -0.98516,3.5711 -1.46314,1.5752 -2.40696,0.9335 -4.24098,2.0554 -1.44163,0.8817 -1.2378,1.9843 -2.89605,2.31 -2.10959,0.4143 -2.49601,-0.6595 -4.63915,-0.83 -1.68461,-0.134 -2.16775,0.8778 -3.70075,0.1666 -1.95024,-0.9048 -1.63167,-2.0007 -3.26531,-3.3983 -1.28412,-1.0985 -2.2697,-0.564 -3.09189,-2.0404 -1.04597,-1.8783 -0.14409,-2.5777 -0.64424,-4.6686 -0.39314,-1.6436 -1.5047,-1.7904 -1.30203,-3.4681 0.25782,-2.1344 1.39853,-2.1701 2.22291,-4.1557 0.648,-1.5607 -0.16495,-2.3329 0.98515,-3.5711 1.46315,-1.57516 2.40696,-0.93353 4.24099,-2.05533 1.44163,-0.88179 1.2378,-1.98432 2.89604,-2.31002 2.1096,-0.41436 2.49602,0.6595 4.63915,0.82995 1.68461,0.13399 2.16776,-0.87778 3.70075,-0.16659 1.95025,0.90477 1.63167,2.00067 3.26531,3.39829 1.28413,1.0986 2.26971,0.564 3.09189,2.0404 1.04598,1.8783 0.14409,2.5777 0.64424,4.6686 0.39315,1.6436 1.5047,1.7904 1.30204,3.4682 -0.25783,2.1343 -1.39853,2.17 -2.22291,4.1556 z"
       transform="matrix(0.69105193,0.2681471,-0.2681471,0.69105193,1145.0498,-851.85676)" />
    <path
       sodipodi:type="star"
       style="color:#000000;clip-rule:nonzero;display:inline;overflow:visible;visibility:visible;opacity:1;isolation:auto;mix-blend-mode:normal;color-interpolation:sRGB;color-interpolation-filters:linearRGB;solid-color:#000000;solid-opacity:1;fill:#ffffff;fill-opacity:1;fill-rule:nonzero;stroke:none;stroke-width:1;stroke-linecap:butt;stroke-linejoin:miter;stroke-miterlimit:4;stroke-dasharray:none;stroke-dashoffset:0;stroke-opacity:1;color-rendering:auto;image-rendering:auto;shape-rendering:auto;text-rendering:auto;enable-background:accumulate"
       id="path4755-8"
       sodipodi:sides="3"
       sodipodi:cx="757.74072"
       sodipodi:cy="916.63092"
       sodipodi:r1="16.883854"
       sodipodi:r2="9.0083475"
       sodipodi:arg1="0.47891361"
       sodipodi:arg2="1.507456"
       inkscape:flatsided="false"
       inkscape:rounded="0.456183"
       inkscape:randomized="0"
       d="m 772.72508,924.41126 c -2.93095,5.91195 -7.82212,0.91519 -14.41415,1.20994 -6.74507,0.3016 -11.06108,5.7182 -14.80035,0.0964 -3.65443,-5.49425 3.11847,-7.23175 6.15922,-13.08798 3.11135,-5.99221 0.57844,-12.43828 7.31672,-12.86568 6.58537,-0.4177 4.70364,6.31656 8.25491,11.87804 3.63373,5.69061 10.48265,6.72008 7.48365,12.7693 z"
       transform="matrix(0.43273378,0.60182809,-0.60182809,0.43273378,388.86648,-877.86788)" />
    <path
       sodipodi:type="star"
       style="color:#000000;clip-rule:nonzero;display:inline;overflow:visible;visibility:visible;opacity:1;isolation:auto;mix-blend-mode:normal;color-interpolation:sRGB;color-interpolation-filters:linearRGB;solid-color:#000000;solid-opacity:1;fill:#ffffff;fill-opacity:1;fill-rule:nonzero;stroke:none;stroke-width:1;stroke-linecap:butt;stroke-linejoin:miter;stroke-miterlimit:4;stroke-dasharray:none;stroke-dashoffset:0;stroke-opacity:1;color-rendering:auto;image-rendering:auto;shape-rendering:auto;text-rendering:auto;enable-background:accumulate"
       id="path4753-3"
       sodipodi:sides="6"
       sodipodi:cx="814.93445"
       sodipodi:cy="864.95367"
       sodipodi:r1="17.962692"
       sodipodi:r2="13.597269"
       sodipodi:arg1="0.89728843"
       sodipodi:arg2="1.428139"
       inkscape:flatsided="false"
       inkscape:rounded="0.456183"
       inkscape:randomized="0"
       d="m 826.13835,878.99401 c -3.33124,2.61893 -5.0808,-1.21405 -9.27072,-0.58119 -4.10302,0.61973 -4.63842,4.80667 -8.49052,3.26388 -3.93368,-1.57546 -1.489,-5.00712 -4.13203,-8.31927 -2.58821,-3.24345 -6.48191,-1.61366 -7.07187,-5.72106 -0.60245,-4.1944 3.5918,-3.79308 5.13869,-7.73809 1.5148,-3.86318 -1.84349,-6.42032 1.41865,-8.98494 3.33123,-2.61894 5.0808,1.21405 9.27072,0.58119 4.10302,-0.61973 4.63842,-4.80667 8.49051,-3.26388 3.93369,1.57546 1.48901,5.00712 4.13204,8.31927 2.58821,3.24345 6.48191,1.61366 7.07186,5.72106 0.60245,4.1944 -3.59179,3.79308 -5.13868,7.73809 -1.51481,3.86318 1.84349,6.42032 -1.41865,8.98494 z"
       transform="matrix(0.6412049,0.37190301,-0.37190301,0.6412049,1586.0569,-680.66272)" />
    <path
       sodipodi:type="star"
       style="color:#000000;clip-rule:nonzero;display:inline;overflow:visible;visibility:visible;opacity:1;isolation:auto;mix-blend-mode:normal;color-interpolation:sRGB;color-interpolation-filters:linearRGB;solid-color:#000000;solid-opacity:1;fill:#ffffff;fill-opacity:1;fill-rule:nonzero;stroke:none;stroke-width:1;stroke-linecap:butt;stroke-linejoin:miter;stroke-miterlimit:4;stroke-dasharray:none;stroke-dashoffset:0;stroke-opacity:1;color-rendering:auto;image-rendering:auto;shape-rendering:auto;text-rendering:auto;enable-background:accumulate"
       id="path4749-1"
       sodipodi:sides="8"
       sodipodi:cx="849.92682"
       sodipodi:cy="888.37976"
       sodipodi:r1="44.517704"
       sodipodi:r2="37.380981"
       sodipodi:arg1="-0.78539816"
       sodipodi:arg2="-0.39269908"
       inkscape:flatsided="false"
       inkscape:rounded="0.456183"
       inkscape:randomized="0"
       d="m 881.40559,856.90099 c 5.62678,5.62679 0.0116,9.82194 3.05675,17.17369 3.0452,7.35175 9.98218,6.34761 9.98218,14.30508 0,7.95748 -6.93698,6.95333 -9.98218,14.30508 -3.04519,7.35175 2.57003,11.54691 -3.05675,17.17369 -5.62679,5.62679 -9.82194,0.0116 -17.17369,3.05675 -7.35175,3.0452 -6.34761,9.98218 -14.30508,9.98218 -7.95748,0 -6.95333,-6.93698 -14.30508,-9.98218 -7.35175,-3.04519 -11.54691,2.57004 -17.17369,-3.05675 -5.62679,-5.62678 -0.0116,-9.82194 -3.05675,-17.17369 -3.0452,-7.35175 -9.98219,-6.3476 -9.98219,-14.30508 0,-7.95747 6.93699,-6.95333 9.98219,-14.30508 3.04519,-7.35175 -2.57004,-11.5469 3.05675,-17.17369 5.62678,-5.62678 9.82194,-0.0116 17.17369,-3.05675 7.35175,-3.0452 6.3476,-9.98218 14.30508,-9.98218 7.95747,0 6.95333,6.93698 14.30508,9.98218 7.35175,3.04519 11.5469,-2.57003 17.17369,3.05675 z"
       transform="matrix(0.28333182,0.11811664,-0.11811664,0.28333182,336.87555,-146.53308)" />
  </g>
</svg>
