<?xml version="1.0" encoding="UTF-8" standalone="no"?>
<!-- Created with Inkscape (http://www.inkscape.org/) -->

<svg
   xmlns:dc="http://purl.org/dc/elements/1.1/"
   xmlns:cc="http://creativecommons.org/ns#"
   xmlns:rdf="http://www.w3.org/1999/02/22-rdf-syntax-ns#"
   xmlns:svg="http://www.w3.org/2000/svg"
   xmlns="http://www.w3.org/2000/svg"
   xmlns:xlink="http://www.w3.org/1999/xlink"
   xmlns:sodipodi="http://sodipodi.sourceforge.net/DTD/sodipodi-0.dtd"
   xmlns:inkscape="http://www.inkscape.org/namespaces/inkscape"
   width="1800"
   height="1800"
   viewBox="0 0 1800 1800"
   id="svg6188"
   version="1.1"
   inkscape:version="0.91 r13725"
   sodipodi:docname="polar_3_2.svg">
  <defs
     id="defs6190">
    <linearGradient
       id="linearGradient4239"
       inkscape:collect="always">
      <stop
         id="stop4241"
         offset="0"
         style="stop-color:#565f91;stop-opacity:1" />
      <stop
         id="stop4243"
         offset="1"
         style="stop-color:#f9a825;stop-opacity:1" />
    </linearGradient>
    <linearGradient
       id="linearGradient4233"
       inkscape:collect="always">
      <stop
         id="stop4235"
         offset="0"
         style="stop-color:#565f91;stop-opacity:1" />
      <stop
         id="stop4237"
         offset="1"
         style="stop-color:#f9a825;stop-opacity:1" />
    </linearGradient>
    <linearGradient
       id="linearGradient4227"
       inkscape:collect="always">
      <stop
         id="stop4229"
         offset="0"
         style="stop-color:#565f91;stop-opacity:1" />
      <stop
         id="stop4231"
         offset="1"
         style="stop-color:#f9a825;stop-opacity:1" />
    </linearGradient>
    <linearGradient
       id="linearGradient4221"
       inkscape:collect="always">
      <stop
         id="stop4223"
         offset="0"
         style="stop-color:#565f91;stop-opacity:1" />
      <stop
         id="stop4225"
         offset="1"
         style="stop-color:#f9a825;stop-opacity:1" />
    </linearGradient>
    <linearGradient
       id="linearGradient4215"
       inkscape:collect="always">
      <stop
         id="stop4217"
         offset="0"
         style="stop-color:#565f91;stop-opacity:1" />
      <stop
         id="stop4219"
         offset="1"
         style="stop-color:#f9a825;stop-opacity:1" />
    </linearGradient>
    <linearGradient
       id="linearGradient4209"
       inkscape:collect="always">
      <stop
         id="stop4211"
         offset="0"
         style="stop-color:#565f91;stop-opacity:1" />
      <stop
         id="stop4213"
         offset="1"
         style="stop-color:#f9a825;stop-opacity:1" />
    </linearGradient>
    <linearGradient
       id="linearGradient4203"
       inkscape:collect="always">
      <stop
         id="stop4205"
         offset="0"
         style="stop-color:#565f91;stop-opacity:1" />
      <stop
         id="stop4207"
         offset="1"
         style="stop-color:#f9a825;stop-opacity:1" />
    </linearGradient>
    <linearGradient
       id="linearGradient4197"
       inkscape:collect="always">
      <stop
         id="stop4199"
         offset="0"
         style="stop-color:#565f91;stop-opacity:1" />
      <stop
         id="stop4201"
         offset="1"
         style="stop-color:#f9a825;stop-opacity:1" />
    </linearGradient>
    <linearGradient
       id="linearGradient4191"
       inkscape:collect="always">
      <stop
         id="stop4193"
         offset="0"
         style="stop-color:#565f91;stop-opacity:1" />
      <stop
         id="stop4195"
         offset="1"
         style="stop-color:#f9a825;stop-opacity:1" />
    </linearGradient>
    <linearGradient
       inkscape:collect="always"
       id="linearGradient8240">
      <stop
         style="stop-color:#565f91;stop-opacity:1"
         offset="0"
         id="stop8242" />
      <stop
         style="stop-color:#f9a825;stop-opacity:1"
         offset="1"
         id="stop8244" />
    </linearGradient>
    <linearGradient
       inkscape:collect="always"
       xlink:href="#linearGradient8240"
       id="linearGradient8246"
       x1="1411.2933"
       y1="773.00989"
       x2="1039.6252"
       y2="-118.52753"
       gradientUnits="userSpaceOnUse" />
    <linearGradient
       inkscape:collect="always"
       xlink:href="#linearGradient4239"
       id="linearGradient8248"
       x1="1168.3864"
       y1="780.62427"
       x2="967.69745"
       y2="434.61273"
       gradientUnits="userSpaceOnUse" />
    <linearGradient
       inkscape:collect="always"
       xlink:href="#linearGradient4233"
       id="linearGradient8250"
       x1="1135.6954"
       y1="818.237"
       x2="810.93262"
       y2="584.72217"
       gradientUnits="userSpaceOnUse" />
    <linearGradient
       inkscape:collect="always"
       xlink:href="#linearGradient4227"
       id="linearGradient8252"
       x1="1074.6436"
       y1="1150.8931"
       x2="929.94415"
       y2="777.98279"
       gradientUnits="userSpaceOnUse" />
    <linearGradient
       inkscape:collect="always"
       xlink:href="#linearGradient4221"
       id="linearGradient8254"
       x1="985.38843"
       y1="1123.5425"
       x2="804.09656"
       y2="766.98486"
       gradientUnits="userSpaceOnUse" />
    <linearGradient
       inkscape:collect="always"
       xlink:href="#linearGradient4215"
       id="linearGradient8256"
       x1="1811.3207"
       y1="1090.098"
       x2="1811.3207"
       y2="-709.90204"
       gradientUnits="userSpaceOnUse"
       gradientTransform="translate(-11.320715,-37.735849)" />
    <linearGradient
       inkscape:collect="always"
       xlink:href="#linearGradient4209"
       id="linearGradient8258"
       x1="1147.1698"
       y1="610.85272"
       x2="1147.1697"
       y2="-1189.1473"
       gradientUnits="userSpaceOnUse"
       gradientTransform="translate(652.83023,441.50943)" />
    <linearGradient
       inkscape:collect="always"
       xlink:href="#linearGradient4203"
       id="linearGradient8260"
       x1="1041.5094"
       y1="1750.4753"
       x2="1041.5093"
       y2="-49.524677"
       gradientUnits="userSpaceOnUse"
       gradientTransform="translate(758.4906,-698.11321)" />
    <linearGradient
       inkscape:collect="always"
       xlink:href="#linearGradient4197"
       id="linearGradient8262"
       x1="2494.3396"
       y1="1131.6074"
       x2="2494.3396"
       y2="-668.39258"
       gradientUnits="userSpaceOnUse"
       gradientTransform="translate(-694.33958,-79.245283)" />
    <linearGradient
       inkscape:collect="always"
       xlink:href="#linearGradient4191"
       id="linearGradient8264"
       x1="975.81195"
       y1="1194.6703"
       x2="917.99097"
       y2="798.8714"
       gradientUnits="userSpaceOnUse" />
  </defs>
  <sodipodi:namedview
     id="base"
     pagecolor="#ffffff"
     bordercolor="#666666"
     borderopacity="1.0"
     inkscape:pageopacity="0.0"
     inkscape:pageshadow="2"
     inkscape:zoom="0.265"
     inkscape:cx="200"
     inkscape:cy="888.17392"
     inkscape:document-units="px"
     inkscape:current-layer="layer1"
     showgrid="false"
     units="px"
     inkscape:showpageshadow="false"
     inkscape:snap-page="true"
     inkscape:snap-bbox="true"
     inkscape:bbox-paths="true"
     inkscape:bbox-nodes="true"
     inkscape:snap-bbox-edge-midpoints="true"
     inkscape:snap-bbox-midpoints="true"
     inkscape:window-width="1920"
     inkscape:window-height="1017"
     inkscape:window-x="-8"
     inkscape:window-y="-8"
     inkscape:window-maximized="1"
     inkscape:snap-global="true" />
  <metadata
     id="metadata6193">
    <rdf:RDF>
      <cc:Work
         rdf:about="">
        <dc:format>image/svg+xml</dc:format>
        <dc:type
           rdf:resource="http://purl.org/dc/dcmitype/StillImage" />
        <dc:title></dc:title>
      </cc:Work>
    </rdf:RDF>
  </metadata>
  <g
     inkscape:label="Layer 1"
     inkscape:groupmode="layer"
     id="layer1"
     transform="translate(0,747.63784)">
    <path
       sodipodi:type="star"
       style="color:#000000;clip-rule:nonzero;display:inline;overflow:visible;visibility:visible;opacity:0.85;isolation:auto;mix-blend-mode:normal;color-interpolation:sRGB;color-interpolation-filters:linearRGB;solid-color:#000000;solid-opacity:1;fill:url(#linearGradient8264);fill-opacity:1;fill-rule:nonzero;stroke:none;stroke-width:1;stroke-linecap:butt;stroke-linejoin:miter;stroke-miterlimit:4;stroke-dasharray:none;stroke-dashoffset:0;stroke-opacity:1;color-rendering:auto;image-rendering:auto;shape-rendering:auto;text-rendering:auto;enable-background:accumulate"
       id="path4749"
       sodipodi:sides="8"
       sodipodi:cx="849.92682"
       sodipodi:cy="888.37976"
       sodipodi:r1="44.517704"
       sodipodi:r2="37.380981"
       sodipodi:arg1="-0.78539816"
       sodipodi:arg2="-0.39269908"
       inkscape:flatsided="false"
       inkscape:rounded="0.456183"
       inkscape:randomized="0"
       d="m 881.40559,856.90099 c 5.62678,5.62679 0.0116,9.82194 3.05675,17.17369 3.0452,7.35175 9.98218,6.34761 9.98218,14.30508 0,7.95748 -6.93698,6.95333 -9.98218,14.30508 -3.04519,7.35175 2.57003,11.54691 -3.05675,17.17369 -5.62679,5.62679 -9.82194,0.0116 -17.17369,3.05675 -7.35175,3.0452 -6.34761,9.98218 -14.30508,9.98218 -7.95748,0 -6.95333,-6.93698 -14.30508,-9.98218 -7.35175,-3.04519 -11.54691,2.57004 -17.17369,-3.05675 -5.62679,-5.62678 -0.0116,-9.82194 -3.05675,-17.17369 -3.0452,-7.35175 -9.98219,-6.3476 -9.98219,-14.30508 0,-7.95747 6.93699,-6.95333 9.98219,-14.30508 3.04519,-7.35175 -2.57004,-11.5469 3.05675,-17.17369 5.62678,-5.62678 9.82194,-0.0116 17.17369,-3.05675 7.35175,-3.0452 6.3476,-9.98218 14.30508,-9.98218 7.95747,0 6.95333,6.93698 14.30508,9.98218 7.35175,3.04519 11.5469,-2.57003 17.17369,3.05675 z"
       transform="matrix(4.452737,0.65048568,-0.65048568,4.452737,-1767.918,-4901.9421)" />
    <path
       sodipodi:type="star"
       style="color:#000000;clip-rule:nonzero;display:inline;overflow:visible;visibility:visible;opacity:0.85;isolation:auto;mix-blend-mode:normal;color-interpolation:sRGB;color-interpolation-filters:linearRGB;solid-color:#000000;solid-opacity:1;fill:url(#linearGradient8262);fill-opacity:1;fill-rule:nonzero;stroke:none;stroke-width:1;stroke-linecap:butt;stroke-linejoin:miter;stroke-miterlimit:4;stroke-dasharray:none;stroke-dashoffset:0;stroke-opacity:1;color-rendering:auto;image-rendering:auto;shape-rendering:auto;text-rendering:auto;enable-background:accumulate"
       id="path4751"
       sodipodi:sides="4"
       sodipodi:cx="670.99362"
       sodipodi:cy="338.03071"
       sodipodi:r1="230.12918"
       sodipodi:r2="115.41948"
       sodipodi:arg1="-2.910502"
       sodipodi:arg2="-2.1251038"
       inkscape:flatsided="false"
       inkscape:rounded="0.456183"
       inkscape:randomized="0"
       d="m 446.98189,285.32207 c 17.70613,-75.25101 97.52951,-4.73815 163.26013,-45.42853 65.73061,-40.69038 38.2092,-143.580656 113.4602,-125.87454 75.25101,17.70613 4.73815,97.52951 45.42853,163.26013 40.69038,65.73061 143.58066,38.2092 125.87454,113.4602 -17.70612,75.25101 -97.52951,4.73815 -163.26013,45.42853 -65.73061,40.69038 -38.2092,143.58066 -113.4602,125.87454 -75.25101,-17.70612 -4.73815,-97.52951 -45.42853,-163.26013 -40.69038,-65.73061 -143.58066,-38.2092 -125.87454,-113.4602 z" />
    <path
       sodipodi:type="star"
       style="color:#000000;clip-rule:nonzero;display:inline;overflow:visible;visibility:visible;opacity:0.85;isolation:auto;mix-blend-mode:normal;color-interpolation:sRGB;color-interpolation-filters:linearRGB;solid-color:#000000;solid-opacity:1;fill:url(#linearGradient8260);fill-opacity:1;fill-rule:nonzero;stroke:none;stroke-width:1;stroke-linecap:butt;stroke-linejoin:miter;stroke-miterlimit:4;stroke-dasharray:none;stroke-dashoffset:0;stroke-opacity:1;color-rendering:auto;image-rendering:auto;shape-rendering:auto;text-rendering:auto;enable-background:accumulate"
       id="path4753"
       sodipodi:sides="6"
       sodipodi:cx="1121.655"
       sodipodi:cy="32.902328"
       sodipodi:r1="143.25925"
       sodipodi:r2="108.44334"
       sodipodi:arg1="0.89728843"
       sodipodi:arg2="1.428139"
       inkscape:flatsided="false"
       inkscape:rounded="0.456183"
       inkscape:randomized="0"
       d="m 1211.0104,144.87927 c -26.5681,20.88678 -40.5214,-9.68273 -73.9376,-4.63521 -32.723,4.94283 -36.9932,38.33532 -67.715,26.03073 -31.3725,-12.56522 -11.8752,-39.93387 -32.9545,-66.349373 -20.6422,-25.867581 -51.69602,-12.869444 -56.40082,-45.627567 -4.80445,-33.452002 28.64612,-30.251136 40.98302,-61.7141679 12.0809,-30.8104091 -14.7028,-51.2047571 11.3142,-71.6582951 26.568,-20.886783 40.5213,9.682732 73.9375,4.635206 32.7231,-4.942827 36.9933,-38.335313 67.715,-26.030723 31.3725,12.565215 11.8752,39.933863 32.9546,66.34937 20.6421,25.8675815 51.696,12.869444 56.4008,45.627567 4.8044,33.452002 -28.6462,30.251136 -40.983,61.714168 -12.0809,30.810405 14.7027,51.204755 -11.3142,71.658295 z" />
    <path
       sodipodi:type="star"
       style="color:#000000;clip-rule:nonzero;display:inline;overflow:visible;visibility:visible;opacity:0.85;isolation:auto;mix-blend-mode:normal;color-interpolation:sRGB;color-interpolation-filters:linearRGB;solid-color:#000000;solid-opacity:1;fill:url(#linearGradient8258);fill-opacity:1;fill-rule:nonzero;stroke:none;stroke-width:1;stroke-linecap:butt;stroke-linejoin:miter;stroke-miterlimit:4;stroke-dasharray:none;stroke-dashoffset:0;stroke-opacity:1;color-rendering:auto;image-rendering:auto;shape-rendering:auto;text-rendering:auto;enable-background:accumulate"
       id="path4755"
       sodipodi:sides="3"
       sodipodi:cx="1281.0327"
       sodipodi:cy="740.53053"
       sodipodi:r1="193.01842"
       sodipodi:r2="102.9846"
       sodipodi:arg1="0.47891361"
       sodipodi:arg2="1.507456"
       inkscape:flatsided="false"
       inkscape:rounded="0.456183"
       inkscape:randomized="0"
       d="m 1452.3358,829.47635 c -33.5048,67.58735 -89.4234,10.46394 -164.7844,13.83225 -77.1106,3.44651 -126.4496,65.36977 -169.1996,1.10182 -41.7799,-62.80967 35.6497,-82.6749 70.4131,-149.62357 35.5706,-68.50303 6.613,-142.19348 83.6456,-147.08208 75.2848,-4.77767 53.7738,72.21098 94.3713,135.79133 41.5401,65.05652 119.8367,76.82371 85.554,145.98025 z" />
    <path
       sodipodi:type="star"
       style="color:#000000;clip-rule:nonzero;display:inline;overflow:visible;visibility:visible;opacity:0.85;isolation:auto;mix-blend-mode:normal;color-interpolation:sRGB;color-interpolation-filters:linearRGB;solid-color:#000000;solid-opacity:1;fill:url(#linearGradient8256);fill-opacity:1;fill-rule:nonzero;stroke:none;stroke-width:1;stroke-linecap:butt;stroke-linejoin:miter;stroke-miterlimit:4;stroke-dasharray:none;stroke-dashoffset:0;stroke-opacity:1;color-rendering:auto;image-rendering:auto;shape-rendering:auto;text-rendering:auto;enable-background:accumulate"
       id="path4757"
       sodipodi:sides="10"
       sodipodi:cx="262.67872"
       sodipodi:cy="-453.50884"
       sodipodi:r1="126.91245"
       sodipodi:r2="138.26738"
       sodipodi:arg1="0.43436728"
       sodipodi:arg2="0.70769223"
       inkscape:flatsided="false"
       inkscape:rounded="0.456183"
       inkscape:randomized="0"
       d="m 377.80563,-400.09945 c -6.61803,15.94206 1.68547,23.82926 -10.0625,36.47572 -14.94559,16.08865 -24.5856,9.53478 -43.31804,20.99389 -14.72461,9.00742 -12.64292,20.26898 -29.58062,23.5949 -21.54792,4.23119 -25.49458,-6.73726 -47.38494,-8.47729 -17.20689,-1.36776 -22.14214,8.96663 -37.79996,1.70161 -19.91965,-9.24244 -16.66548,-20.43589 -33.35239,-34.71044 -13.11672,-11.22049 -23.18382,-5.76066 -31.58099,-20.84162 -10.68277,-19.18577 -1.47075,-26.32871 -6.58037,-47.68537 -4.01641,-16.78739 -15.37007,-18.28759 -13.29916,-35.42407 2.63457,-21.80079 14.28577,-22.16486 22.70513,-42.44613 6.61803,-15.94206 -1.68547,-23.82926 10.0625,-36.47572 14.9456,-16.08865 24.58561,-9.53478 43.31804,-20.99389 14.72461,-9.00742 12.64292,-20.26898 29.58063,-23.5949 21.54791,-4.23119 25.49458,6.73726 47.38493,8.47729 17.20689,1.36776 22.14214,-8.96663 37.79996,-1.70161 19.91965,9.24244 16.66549,20.43589 33.35239,34.71044 13.11672,11.22049 23.18382,5.76066 31.58099,20.84162 10.68277,19.18577 1.47075,26.32871 6.58037,47.68537 4.01641,16.78739 15.37007,18.28759 13.29916,35.42407 -2.63457,21.80079 -14.28577,22.16486 -22.70513,42.44613 z" />
    <path
       sodipodi:type="star"
       style="color:#000000;clip-rule:nonzero;display:inline;overflow:visible;visibility:visible;opacity:0.85;isolation:auto;mix-blend-mode:normal;color-interpolation:sRGB;color-interpolation-filters:linearRGB;solid-color:#000000;solid-opacity:1;fill:url(#linearGradient8254);fill-opacity:1;fill-rule:nonzero;stroke:none;stroke-width:1;stroke-linecap:butt;stroke-linejoin:miter;stroke-miterlimit:4;stroke-dasharray:none;stroke-dashoffset:0;stroke-opacity:1;color-rendering:auto;image-rendering:auto;shape-rendering:auto;text-rendering:auto;enable-background:accumulate"
       id="path4751-2"
       sodipodi:sides="4"
       sodipodi:cx="622.98682"
       sodipodi:cy="919.85846"
       sodipodi:r1="26.544722"
       sodipodi:r2="13.313296"
       sodipodi:arg1="-2.910502"
       sodipodi:arg2="-2.1251038"
       inkscape:flatsided="false"
       inkscape:rounded="0.456183"
       inkscape:randomized="0"
       d="m 597.14773,913.77867 c 2.04235,-8.67998 11.24974,-0.54653 18.83157,-5.24004 7.58183,-4.69352 4.40732,-16.56161 13.0873,-14.51926 8.67998,2.04235 0.54653,11.24974 5.24005,18.83157 4.69351,7.58184 16.5616,4.40732 14.51925,13.0873 -2.04234,8.67999 -11.24974,0.54654 -18.83157,5.24005 -7.58183,4.69352 -4.40732,16.56161 -13.0873,14.51926 -8.67998,-2.04235 -0.54653,-11.24974 -5.24005,-18.83158 -4.69351,-7.58183 -16.5616,-4.40731 -14.51925,-13.0873 z"
       transform="matrix(4.0112721,2.0395329,-2.0395329,4.0112721,138.84074,-5464.2043)" />
    <path
       sodipodi:type="star"
       style="color:#000000;clip-rule:nonzero;display:inline;overflow:visible;visibility:visible;opacity:0.85;isolation:auto;mix-blend-mode:normal;color-interpolation:sRGB;color-interpolation-filters:linearRGB;solid-color:#000000;solid-opacity:1;fill:url(#linearGradient8252);fill-opacity:1;fill-rule:nonzero;stroke:none;stroke-width:1;stroke-linecap:butt;stroke-linejoin:miter;stroke-miterlimit:4;stroke-dasharray:none;stroke-dashoffset:0;stroke-opacity:1;color-rendering:auto;image-rendering:auto;shape-rendering:auto;text-rendering:auto;enable-background:accumulate"
       id="path4757-7"
       sodipodi:sides="10"
       sodipodi:cx="949.15875"
       sodipodi:cy="1009.1704"
       sodipodi:r1="12.42517"
       sodipodi:r2="13.536857"
       sodipodi:arg1="0.43436728"
       sodipodi:arg2="0.70769223"
       inkscape:flatsided="false"
       inkscape:rounded="0.456183"
       inkscape:randomized="0"
       d="m 960.43008,1014.3994 c -0.648,1.5607 0.16495,2.3329 -0.98516,3.5711 -1.46314,1.5752 -2.40696,0.9335 -4.24098,2.0554 -1.44163,0.8817 -1.2378,1.9843 -2.89605,2.31 -2.10959,0.4143 -2.49601,-0.6595 -4.63915,-0.83 -1.68461,-0.134 -2.16775,0.8778 -3.70075,0.1666 -1.95024,-0.9048 -1.63167,-2.0007 -3.26531,-3.3983 -1.28412,-1.0985 -2.2697,-0.564 -3.09189,-2.0404 -1.04597,-1.8783 -0.14409,-2.5777 -0.64424,-4.6686 -0.39314,-1.6436 -1.5047,-1.7904 -1.30203,-3.4681 0.25782,-2.1344 1.39853,-2.1701 2.22291,-4.1557 0.648,-1.5607 -0.16495,-2.3329 0.98515,-3.5711 1.46315,-1.57516 2.40696,-0.93353 4.24099,-2.05533 1.44163,-0.88179 1.2378,-1.98432 2.89604,-2.31002 2.1096,-0.41436 2.49602,0.6595 4.63915,0.82995 1.68461,0.13399 2.16776,-0.87778 3.70075,-0.16659 1.95025,0.90477 1.63167,2.00067 3.26531,3.39829 1.28413,1.0986 2.26971,0.564 3.09189,2.0404 1.04598,1.8783 0.14409,2.5777 0.64424,4.6686 0.39315,1.6436 1.5047,1.7904 1.30204,3.4682 -0.25783,2.1343 -1.39853,2.17 -2.22291,4.1556 z"
       transform="matrix(4.1952405,1.6278684,-1.6278684,4.1952405,-834.88591,-5525.2894)" />
    <path
       sodipodi:type="star"
       style="color:#000000;clip-rule:nonzero;display:inline;overflow:visible;visibility:visible;opacity:0.85;isolation:auto;mix-blend-mode:normal;color-interpolation:sRGB;color-interpolation-filters:linearRGB;solid-color:#000000;solid-opacity:1;fill:url(#linearGradient8250);fill-opacity:1;fill-rule:nonzero;stroke:none;stroke-width:1;stroke-linecap:butt;stroke-linejoin:miter;stroke-miterlimit:4;stroke-dasharray:none;stroke-dashoffset:0;stroke-opacity:1;color-rendering:auto;image-rendering:auto;shape-rendering:auto;text-rendering:auto;enable-background:accumulate"
       id="path4755-8"
       sodipodi:sides="3"
       sodipodi:cx="757.74072"
       sodipodi:cy="916.63092"
       sodipodi:r1="16.883854"
       sodipodi:r2="9.0083475"
       sodipodi:arg1="0.47891361"
       sodipodi:arg2="1.507456"
       inkscape:flatsided="false"
       inkscape:rounded="0.456183"
       inkscape:randomized="0"
       d="m 772.72508,924.41126 c -2.93095,5.91195 -7.82212,0.91519 -14.41415,1.20994 -6.74507,0.3016 -11.06108,5.7182 -14.80035,0.0964 -3.65443,-5.49425 3.11847,-7.23175 6.15922,-13.08798 3.11135,-5.99221 0.57844,-12.43828 7.31672,-12.86568 6.58537,-0.4177 4.70364,6.31656 8.25491,11.87804 3.63373,5.69061 10.48265,6.72008 7.48365,12.7693 z"
       transform="matrix(2.6270419,3.6535803,-3.6535803,2.6270419,1805.9752,-5246.535)" />
    <path
       sodipodi:type="star"
       style="color:#000000;clip-rule:nonzero;display:inline;overflow:visible;visibility:visible;opacity:0.85;isolation:auto;mix-blend-mode:normal;color-interpolation:sRGB;color-interpolation-filters:linearRGB;solid-color:#000000;solid-opacity:1;fill:url(#linearGradient8248);fill-opacity:1;fill-rule:nonzero;stroke:none;stroke-width:1;stroke-linecap:butt;stroke-linejoin:miter;stroke-miterlimit:4;stroke-dasharray:none;stroke-dashoffset:0;stroke-opacity:1;color-rendering:auto;image-rendering:auto;shape-rendering:auto;text-rendering:auto;enable-background:accumulate"
       id="path4753-3"
       sodipodi:sides="6"
       sodipodi:cx="814.93445"
       sodipodi:cy="864.95367"
       sodipodi:r1="17.962692"
       sodipodi:r2="13.597269"
       sodipodi:arg1="0.89728843"
       sodipodi:arg2="1.428139"
       inkscape:flatsided="false"
       inkscape:rounded="0.456183"
       inkscape:randomized="0"
       d="m 826.13835,878.99401 c -3.33124,2.61893 -5.0808,-1.21405 -9.27072,-0.58119 -4.10302,0.61973 -4.63842,4.80667 -8.49052,3.26388 -3.93368,-1.57546 -1.489,-5.00712 -4.13203,-8.31927 -2.58821,-3.24345 -6.48191,-1.61366 -7.07187,-5.72106 -0.60245,-4.1944 3.5918,-3.79308 5.13869,-7.73809 1.5148,-3.86318 -1.84349,-6.42032 1.41865,-8.98494 3.33123,-2.61894 5.0808,1.21405 9.27072,0.58119 4.10302,-0.61973 4.63842,-4.80667 8.49051,-3.26388 3.93369,1.57546 1.48901,5.00712 4.13204,8.31927 2.58821,3.24345 6.48191,1.61366 7.07186,5.72106 0.60245,4.1944 -3.59179,3.79308 -5.13868,7.73809 -1.51481,3.86318 1.84349,6.42032 -1.41865,8.98494 z"
       transform="matrix(3.8926292,2.2577502,-2.2577502,3.8926292,-985.64042,-4624.2432)" />
    <path
       sodipodi:type="star"
       style="color:#000000;clip-rule:nonzero;display:inline;overflow:visible;visibility:visible;opacity:0.85;isolation:auto;mix-blend-mode:normal;color-interpolation:sRGB;color-interpolation-filters:linearRGB;solid-color:#000000;solid-opacity:1;fill:url(#linearGradient8246);fill-opacity:1;fill-rule:nonzero;stroke:none;stroke-width:1;stroke-linecap:butt;stroke-linejoin:miter;stroke-miterlimit:4;stroke-dasharray:none;stroke-dashoffset:0;stroke-opacity:1;color-rendering:auto;image-rendering:auto;shape-rendering:auto;text-rendering:auto;enable-background:accumulate"
       id="path4749-1"
       sodipodi:sides="8"
       sodipodi:cx="849.92682"
       sodipodi:cy="888.37976"
       sodipodi:r1="44.517704"
       sodipodi:r2="37.380981"
       sodipodi:arg1="-0.78539816"
       sodipodi:arg2="-0.39269908"
       inkscape:flatsided="false"
       inkscape:rounded="0.456183"
       inkscape:randomized="0"
       d="m 881.40559,856.90099 c 5.62678,5.62679 0.0116,9.82194 3.05675,17.17369 3.0452,7.35175 9.98218,6.34761 9.98218,14.30508 0,7.95748 -6.93698,6.95333 -9.98218,14.30508 -3.04519,7.35175 2.57003,11.54691 -3.05675,17.17369 -5.62679,5.62679 -9.82194,0.0116 -17.17369,3.05675 -7.35175,3.0452 -6.34761,9.98218 -14.30508,9.98218 -7.95748,0 -6.95333,-6.93698 -14.30508,-9.98218 -7.35175,-3.04519 -11.54691,2.57004 -17.17369,-3.05675 -5.62679,-5.62678 -0.0116,-9.82194 -3.05675,-17.17369 -3.0452,-7.35175 -9.98219,-6.3476 -9.98219,-14.30508 0,-7.95747 6.93699,-6.95333 9.98219,-14.30508 3.04519,-7.35175 -2.57004,-11.5469 3.05675,-17.17369 5.62678,-5.62678 9.82194,-0.0116 17.17369,-3.05675 7.35175,-3.0452 6.3476,-9.98218 14.30508,-9.98218 7.95747,0 6.95333,6.93698 14.30508,9.98218 7.35175,3.04519 11.5469,-2.57003 17.17369,3.05675 z"
       transform="matrix(1.7200519,0.71706295,-0.71706295,1.7200519,-73.201062,-1289.2411)" />
  </g>
</svg>
