<?xml version="1.0" encoding="UTF-8" standalone="no"?>
<svg
   xmlns:dc="http://purl.org/dc/elements/1.1/"
   xmlns:cc="http://creativecommons.org/ns#"
   xmlns:rdf="http://www.w3.org/1999/02/22-rdf-syntax-ns#"
   xmlns:svg="http://www.w3.org/2000/svg"
   xmlns="http://www.w3.org/2000/svg"
   xmlns:sodipodi="http://sodipodi.sourceforge.net/DTD/sodipodi-0.dtd"
   xmlns:inkscape="http://www.inkscape.org/namespaces/inkscape"
   id="Layer_1"
   viewBox="0 0 64 64"
   version="1.1"
   inkscape:version="0.91 r13725"
   sodipodi:docname="Discord.svg"
   width="64"
   height="64">
  <metadata
     id="metadata13">
    <rdf:RDF>
      <cc:Work
         rdf:about="">
        <dc:format>image/svg+xml</dc:format>
        <dc:type
           rdf:resource="http://purl.org/dc/dcmitype/StillImage" />
        <dc:title></dc:title>
      </cc:Work>
    </rdf:RDF>
  </metadata>
  <defs
     id="defs11" />
  <sodipodi:namedview
     pagecolor="#ffffff"
     bordercolor="#666666"
     borderopacity="1"
     objecttolerance="10"
     gridtolerance="10"
     guidetolerance="10"
     inkscape:pageopacity="0"
     inkscape:pageshadow="2"
     inkscape:window-width="1920"
     inkscape:window-height="1017"
     id="namedview9"
     showgrid="false"
     inkscape:snap-page="true"
     inkscape:snap-bbox="true"
     inkscape:bbox-paths="true"
     inkscape:bbox-nodes="true"
     inkscape:snap-bbox-edge-midpoints="true"
     inkscape:snap-bbox-midpoints="true"
     inkscape:zoom="5.5625733"
     inkscape:cx="14.922839"
     inkscape:cy="62.472668"
     inkscape:window-x="-8"
     inkscape:window-y="-8"
     inkscape:window-maximized="1"
     inkscape:current-layer="Layer_1" />
  <style
     id="style3">.st0{fill:#7289DA;}</style>
  <path
     class="st0"
     d="m 27.173334,27.706667 c -1.52,0 -2.720001,1.333333 -2.720001,2.96 0,1.626667 1.226667,2.96 2.720001,2.96 1.519999,0 2.719999,-1.333333 2.719999,-2.96 0.02667,-1.626667 -1.2,-2.96 -2.719999,-2.96 z m 9.733333,0 c -1.52,0 -2.72,1.333333 -2.72,2.96 0,1.626667 1.226666,2.96 2.72,2.96 1.52,0 2.719999,-1.333333 2.719999,-2.96 0,-1.626667 -1.199999,-2.96 -2.719999,-2.96 z"
     id="path5"
     inkscape:connector-curvature="0"
     style="fill:#7289da" />
  <path
     class="st0"
     d="M 53.44,0 10.56,0 C 6.944,0 4,2.944 4,6.5919999 L 4,49.856 c 0,3.648 2.944,6.592 6.56,6.592 l 36.288,0 -1.696,-5.92 4.096,3.808 L 53.12,57.92 60,64 60,6.5919999 C 60,2.944 57.056,0 53.44,0 Z M 41.088,41.792 c 0,0 -1.152,-1.376 -2.112,-2.592 4.192,-1.184 5.792,-3.808 5.792,-3.808 -1.312,0.864 -2.56,1.472 -3.68,1.888 -1.6,0.672 -3.136,1.12 -4.64,1.376 C 33.376,39.232 30.56,39.072 28.16,38.624 26.336,38.271999 24.768,37.76 23.456,37.248 22.72,36.96 21.92,36.608 21.12,36.16 21.024,36.096 20.928,36.064 20.832,36 20.768,35.968 20.736,35.936 20.704,35.904 20.128,35.584 19.808,35.36 19.808,35.36 c 0,0 1.536,2.56 5.6,3.776 -0.96,1.216 -2.144,2.656 -2.144,2.656 -7.072,-0.224 -9.76,-4.864 -9.76,-4.864 0,-10.304 4.608,-18.656 4.608,-18.656 4.608,-3.456 8.992,-3.36 8.992,-3.36 l 0.32,0.384 c -5.76,1.664 -8.416,4.192 -8.416,4.192 0,0 0.704,-0.384 1.888,-0.928 3.424,-1.504 6.144,-1.92 7.264,-2.016 0.192,-0.032 0.352,-0.064 0.544,-0.064 1.952,-0.256 4.16,-0.32 6.464,-0.064 3.04,0.351999 6.304,1.247999 9.632,3.072 0,0 -2.528,-2.4 -7.968,-4.064 l 0.448,-0.512 c 0,0 4.384,-0.096 8.992,3.36 0,0 4.608,8.351999 4.608,18.655999 0,0 -2.72,4.640001 -9.792,4.864001 z"
     id="path7"
     inkscape:connector-curvature="0"
     style="fill:#7289da" />
</svg>
